<svg width="696" height="212" viewBox="0 0 696 212" fill="none" xmlns="http://www.w3.org/2000/svg">
<path d="M0.903409 12V11.233L3.78409 8.07955C4.12216 7.71023 4.40057 7.3892 4.61932 7.11648C4.83807 6.84091 5 6.58239 5.10511 6.34091C5.21307 6.09659 5.26705 5.84091 5.26705 5.57386C5.26705 5.26705 5.19318 5.00142 5.04545 4.77699C4.90057 4.55256 4.7017 4.37926 4.44886 4.2571C4.19602 4.13494 3.91193 4.07386 3.59659 4.07386C3.26136 4.07386 2.96875 4.14347 2.71875 4.28267C2.47159 4.41903 2.27983 4.6108 2.14347 4.85795C2.00994 5.10511 1.94318 5.39489 1.94318 5.72727H0.9375C0.9375 5.21591 1.0554 4.76705 1.29119 4.38068C1.52699 3.99432 1.84801 3.69318 2.25426 3.47727C2.66335 3.26136 3.12216 3.15341 3.63068 3.15341C4.14205 3.15341 4.59517 3.26136 4.99006 3.47727C5.38494 3.69318 5.6946 3.98437 5.91903 4.35085C6.14347 4.71733 6.25568 5.125 6.25568 5.57386C6.25568 5.89489 6.19744 6.20881 6.08097 6.51562C5.96733 6.8196 5.76847 7.15909 5.48438 7.53409C5.20312 7.90625 4.8125 8.3608 4.3125 8.89773L2.35227 10.9943V11.0625H6.40909V12H0.903409ZM11.0156 12.1193C10.3736 12.1193 9.8267 11.9446 9.375 11.5952C8.9233 11.2429 8.57813 10.733 8.33949 10.0653C8.10085 9.39489 7.98153 8.58523 7.98153 7.63636C7.98153 6.69318 8.10085 5.88778 8.33949 5.22017C8.58097 4.54972 8.92756 4.03835 9.37926 3.68608C9.83381 3.33097 10.3793 3.15341 11.0156 3.15341C11.652 3.15341 12.196 3.33097 12.6477 3.68608C13.1023 4.03835 13.4489 4.54972 13.6875 5.22017C13.929 5.88778 14.0497 6.69318 14.0497 7.63636C14.0497 8.58523 13.9304 9.39489 13.6918 10.0653C13.4531 10.733 13.108 11.2429 12.6562 11.5952C12.2045 11.9446 11.6577 12.1193 11.0156 12.1193ZM11.0156 11.1818C11.652 11.1818 12.1463 10.875 12.4986 10.2614C12.8509 9.64773 13.027 8.77273 13.027 7.63636C13.027 6.88068 12.946 6.23722 12.7841 5.70597C12.625 5.17472 12.3949 4.76989 12.0938 4.49148C11.7955 4.21307 11.4361 4.07386 11.0156 4.07386C10.3849 4.07386 9.89205 4.38494 9.53693 5.0071C9.18182 5.62642 9.00426 6.50284 9.00426 7.63636C9.00426 8.39205 9.08381 9.03409 9.2429 9.5625C9.40199 10.0909 9.63068 10.4929 9.92898 10.7685C10.2301 11.044 10.5923 11.1818 11.0156 11.1818ZM16.6236 9.61364L16.6065 8.36932H16.8111L19.6747 5.45455H20.919L17.8679 8.53977H17.7827L16.6236 9.61364ZM15.6861 12V3.27273H16.6918V12H15.6861ZM19.8452 12L17.2884 8.76136L18.0043 8.0625L21.1236 12H19.8452Z" fill="#525866"/>
<path d="M3.97159 51.9394V60.6667H2.91477V53.0474H2.86364L0.732955 54.4621V53.3883L2.91477 51.9394H3.97159ZM9.20881 60.786C8.70881 60.786 8.25852 60.6866 7.85795 60.4877C7.45739 60.2888 7.13636 60.0161 6.89489 59.6695C6.65341 59.3229 6.52131 58.9281 6.49858 58.4849H7.52131C7.56108 58.8798 7.74006 59.2065 8.05824 59.465C8.37926 59.7207 8.76278 59.8485 9.20881 59.8485C9.56676 59.8485 9.88494 59.7647 10.1634 59.5971C10.4446 59.4295 10.6648 59.1994 10.8239 58.9067C10.9858 58.6113 11.0668 58.2775 11.0668 57.9053C11.0668 57.5246 10.983 57.1852 10.8153 56.8869C10.6506 56.5857 10.4233 56.3485 10.1335 56.1752C9.84375 56.0019 9.51278 55.9138 9.14062 55.911C8.87358 55.9082 8.59943 55.9494 8.31818 56.0346C8.03693 56.117 7.8054 56.2235 7.62358 56.3542L6.63494 56.2349L7.16335 51.9394H11.6974V52.8769H8.04972L7.7429 55.4508H7.79403C7.97301 55.3087 8.19744 55.1908 8.46733 55.0971C8.73722 55.0033 9.01847 54.9565 9.31108 54.9565C9.84517 54.9565 10.321 55.0843 10.7386 55.34C11.1591 55.5928 11.4886 55.9394 11.7273 56.3798C11.9688 56.8201 12.0895 57.3229 12.0895 57.8883C12.0895 58.4451 11.9645 58.9423 11.7145 59.3798C11.4673 59.8144 11.1264 60.1582 10.6918 60.411C10.2571 60.661 9.76278 60.786 9.20881 60.786ZM14.7369 58.2803L14.7198 57.036H14.9244L17.788 54.1212H19.0323L15.9812 57.2065H15.896L14.7369 58.2803ZM13.7994 60.6667V51.9394H14.805V60.6667H13.7994ZM17.9585 60.6667L15.4016 57.4281L16.1175 56.7292L19.2369 60.6667H17.9585Z" fill="#525866"/>
<path d="M3.97159 100.606V109.333H2.91477V101.714H2.86364L0.732955 103.129V102.055L2.91477 100.606H3.97159ZM9.32812 109.453C8.68608 109.453 8.1392 109.278 7.6875 108.928C7.2358 108.576 6.89063 108.066 6.65199 107.399C6.41335 106.728 6.29403 105.919 6.29403 104.97C6.29403 104.026 6.41335 103.221 6.65199 102.553C6.89347 101.883 7.24006 101.372 7.69176 101.019C8.14631 100.664 8.69176 100.487 9.32812 100.487C9.96449 100.487 10.5085 100.664 10.9602 101.019C11.4148 101.372 11.7614 101.883 12 102.553C12.2415 103.221 12.3622 104.026 12.3622 104.97C12.3622 105.919 12.2429 106.728 12.0043 107.399C11.7656 108.066 11.4205 108.576 10.9688 108.928C10.517 109.278 9.97017 109.453 9.32812 109.453ZM9.32812 108.515C9.96449 108.515 10.4588 108.208 10.8111 107.595C11.1634 106.981 11.3395 106.106 11.3395 104.97C11.3395 104.214 11.2585 103.571 11.0966 103.039C10.9375 102.508 10.7074 102.103 10.4062 101.825C10.108 101.546 9.74858 101.407 9.32812 101.407C8.69744 101.407 8.20455 101.718 7.84943 102.34C7.49432 102.96 7.31676 103.836 7.31676 104.97C7.31676 105.725 7.39631 106.367 7.5554 106.896C7.71449 107.424 7.94318 107.826 8.24148 108.102C8.54261 108.377 8.90483 108.515 9.32812 108.515ZM14.9361 106.947L14.919 105.703H15.1236L17.9872 102.788H19.2315L16.1804 105.873H16.0952L14.9361 106.947ZM13.9986 109.333V100.606H15.0043V109.333H13.9986ZM18.1577 109.333L15.6009 106.095L16.3168 105.396L19.4361 109.333H18.1577Z" fill="#525866"/>
<path d="M3.75 158.119C3.10795 158.119 2.56108 157.945 2.10938 157.595C1.65767 157.243 1.3125 156.733 1.07386 156.065C0.835227 155.395 0.715909 154.585 0.715909 153.636C0.715909 152.693 0.835227 151.888 1.07386 151.22C1.31534 150.55 1.66193 150.038 2.11364 149.686C2.56818 149.331 3.11364 149.153 3.75 149.153C4.38636 149.153 4.9304 149.331 5.3821 149.686C5.83665 150.038 6.18324 150.55 6.42188 151.22C6.66335 151.888 6.78409 152.693 6.78409 153.636C6.78409 154.585 6.66477 155.395 6.42614 156.065C6.1875 156.733 5.84233 157.243 5.39062 157.595C4.93892 157.945 4.39205 158.119 3.75 158.119ZM3.75 157.182C4.38636 157.182 4.88068 156.875 5.23295 156.261C5.58523 155.648 5.76136 154.773 5.76136 153.636C5.76136 152.881 5.6804 152.237 5.51847 151.706C5.35938 151.175 5.12926 150.77 4.82812 150.491C4.52983 150.213 4.17045 150.074 3.75 150.074C3.11932 150.074 2.62642 150.385 2.27131 151.007C1.91619 151.626 1.73864 152.503 1.73864 153.636C1.73864 154.392 1.81818 155.034 1.97727 155.562C2.13636 156.091 2.36506 156.493 2.66335 156.768C2.96449 157.044 3.3267 157.182 3.75 157.182Z" fill="#525866"/>
<rect x="656.667" width="31.3333" height="50" fill="#F5F7FA"/>
<rect width="31.3333" height="80" transform="translate(656.667 52)" fill="#335CFF"/>
<rect width="31.3333" height="32" transform="translate(656.667 134)" fill="#47C2FF"/>
<rect width="31.3333" height="16" transform="translate(656.667 168)" fill="#7D52F4"/>
<path d="M671.771 208H669.078V199.273H671.89C672.737 199.273 673.461 199.447 674.063 199.797C674.666 200.143 675.127 200.642 675.448 201.293C675.769 201.94 675.93 202.716 675.93 203.619C675.93 204.528 675.768 205.311 675.444 205.967C675.12 206.621 674.649 207.124 674.029 207.476C673.41 207.825 672.657 208 671.771 208ZM670.134 207.062H671.703C672.424 207.062 673.022 206.923 673.497 206.645C673.971 206.366 674.325 205.97 674.558 205.456C674.791 204.942 674.907 204.33 674.907 203.619C674.907 202.915 674.792 202.308 674.562 201.8C674.332 201.288 673.988 200.896 673.531 200.624C673.073 200.348 672.504 200.21 671.822 200.21H670.134V207.062Z" fill="#525866"/>
<rect x="601.333" width="31.3333" height="50" fill="#F5F7FA"/>
<rect width="31.3333" height="80" transform="translate(601.333 52)" fill="#335CFF"/>
<rect width="31.3333" height="32" transform="translate(601.333 134)" fill="#47C2FF"/>
<rect width="31.3333" height="16" transform="translate(601.333 168)" fill="#7D52F4"/>
<path d="M620.46 199.273V208H619.437L614.681 201.148H614.596V208H613.539V199.273H614.562L619.335 206.142H619.42V199.273H620.46Z" fill="#525866"/>
<rect x="546" width="31.3333" height="50" fill="#F5F7FA"/>
<rect width="31.3333" height="80" transform="translate(546 52)" fill="#335CFF"/>
<rect width="31.3333" height="32" transform="translate(546 134)" fill="#47C2FF"/>
<rect width="31.3333" height="16" transform="translate(546 168)" fill="#7D52F4"/>
<path d="M565.517 203.636C565.517 204.557 565.351 205.352 565.018 206.023C564.686 206.693 564.23 207.21 563.65 207.574C563.071 207.938 562.409 208.119 561.665 208.119C560.92 208.119 560.258 207.938 559.679 207.574C559.099 207.21 558.643 206.693 558.311 206.023C557.978 205.352 557.812 204.557 557.812 203.636C557.812 202.716 557.978 201.92 558.311 201.25C558.643 200.58 559.099 200.062 559.679 199.699C560.258 199.335 560.92 199.153 561.665 199.153C562.409 199.153 563.071 199.335 563.65 199.699C564.23 200.062 564.686 200.58 565.018 201.25C565.351 201.92 565.517 202.716 565.517 203.636ZM564.494 203.636C564.494 202.881 564.368 202.243 564.115 201.723C563.865 201.203 563.525 200.81 563.096 200.543C562.67 200.276 562.193 200.142 561.665 200.142C561.136 200.142 560.657 200.276 560.228 200.543C559.802 200.81 559.463 201.203 559.21 201.723C558.96 202.243 558.835 202.881 558.835 203.636C558.835 204.392 558.96 205.03 559.21 205.55C559.463 206.07 559.802 206.463 560.228 206.73C560.657 206.997 561.136 207.131 561.665 207.131C562.193 207.131 562.67 206.997 563.096 206.73C563.525 206.463 563.865 206.07 564.115 205.55C564.368 205.03 564.494 204.392 564.494 203.636Z" fill="#525866"/>
<rect x="490.667" width="31.3333" height="50" fill="#F5F7FA"/>
<rect width="31.3333" height="80" transform="translate(490.667 52)" fill="#335CFF"/>
<rect width="31.3333" height="32" transform="translate(490.667 134)" fill="#47C2FF"/>
<rect width="31.3333" height="16" transform="translate(490.667 168)" fill="#7D52F4"/>
<path d="M508.337 201.455C508.286 201.023 508.078 200.688 507.715 200.449C507.351 200.21 506.905 200.091 506.376 200.091C505.99 200.091 505.652 200.153 505.362 200.278C505.075 200.403 504.851 200.575 504.689 200.794C504.53 201.013 504.45 201.261 504.45 201.54C504.45 201.773 504.506 201.973 504.616 202.141C504.73 202.305 504.875 202.443 505.051 202.554C505.227 202.662 505.412 202.751 505.605 202.822C505.798 202.891 505.976 202.946 506.138 202.989L507.024 203.227C507.251 203.287 507.504 203.369 507.783 203.474C508.064 203.58 508.332 203.723 508.588 203.905C508.847 204.084 509.06 204.314 509.227 204.595C509.395 204.876 509.479 205.222 509.479 205.631C509.479 206.102 509.355 206.528 509.108 206.909C508.864 207.29 508.506 207.592 508.034 207.817C507.565 208.041 506.996 208.153 506.325 208.153C505.7 208.153 505.159 208.053 504.702 207.851C504.247 207.649 503.889 207.368 503.628 207.007C503.369 206.646 503.223 206.227 503.189 205.75H504.28C504.308 206.08 504.419 206.352 504.612 206.568C504.808 206.781 505.055 206.94 505.354 207.045C505.655 207.148 505.979 207.199 506.325 207.199C506.729 207.199 507.091 207.134 507.412 207.003C507.733 206.869 507.987 206.685 508.175 206.449C508.362 206.21 508.456 205.932 508.456 205.614C508.456 205.324 508.375 205.088 508.213 204.906C508.051 204.724 507.838 204.577 507.574 204.463C507.31 204.349 507.024 204.25 506.717 204.165L505.643 203.858C504.962 203.662 504.422 203.382 504.024 203.018C503.626 202.655 503.428 202.179 503.428 201.591C503.428 201.102 503.56 200.676 503.824 200.312C504.091 199.946 504.449 199.662 504.898 199.46C505.349 199.256 505.854 199.153 506.411 199.153C506.973 199.153 507.473 199.254 507.911 199.456C508.348 199.655 508.695 199.928 508.95 200.274C509.209 200.621 509.345 201.014 509.359 201.455H508.337Z" fill="#525866"/>
<rect x="435.333" width="31.3333" height="50" fill="#F5F7FA"/>
<rect width="31.3333" height="80" transform="translate(435.333 52)" fill="#335CFF"/>
<rect width="31.3333" height="32" transform="translate(435.333 134)" fill="#47C2FF"/>
<rect width="31.3333" height="16" transform="translate(435.333 168)" fill="#7D52F4"/>
<path d="M448.36 208H447.252L450.457 199.273H451.548L454.752 208H453.644L451.036 200.653H450.968L448.36 208ZM448.769 204.591H453.235V205.528H448.769V204.591Z" fill="#525866"/>
<rect x="380" width="31.3333" height="50" fill="#F5F7FA"/>
<rect width="31.3333" height="80" transform="translate(380 52)" fill="#335CFF"/>
<rect width="31.3333" height="32" transform="translate(380 134)" fill="#47C2FF"/>
<rect width="31.3333" height="16" transform="translate(380 168)" fill="#7D52F4"/>
<path d="M396.807 199.273H397.863V205.511C397.863 206.068 397.761 206.541 397.557 206.93C397.352 207.32 397.064 207.615 396.692 207.817C396.319 208.018 395.88 208.119 395.375 208.119C394.897 208.119 394.473 208.033 394.101 207.859C393.728 207.683 393.436 207.433 393.223 207.109C393.01 206.786 392.903 206.401 392.903 205.955H393.943C393.943 206.202 394.004 206.418 394.126 206.602C394.251 206.784 394.422 206.926 394.638 207.028C394.853 207.131 395.099 207.182 395.375 207.182C395.679 207.182 395.937 207.118 396.15 206.99C396.363 206.862 396.525 206.675 396.636 206.428C396.75 206.178 396.807 205.872 396.807 205.511V199.273Z" fill="#525866"/>
<rect x="324.667" width="31.3333" height="50" fill="#F5F7FA"/>
<rect width="31.3333" height="80" transform="translate(324.667 52)" fill="#335CFF"/>
<rect width="31.3333" height="32" transform="translate(324.667 134)" fill="#47C2FF"/>
<rect width="31.3333" height="16" transform="translate(324.667 168)" fill="#7D52F4"/>
<path d="M341.473 199.273H342.53V205.511C342.53 206.068 342.428 206.541 342.223 206.93C342.019 207.32 341.73 207.615 341.358 207.817C340.986 208.018 340.547 208.119 340.041 208.119C339.564 208.119 339.139 208.033 338.767 207.859C338.395 207.683 338.102 207.433 337.889 207.109C337.676 206.786 337.57 206.401 337.57 205.955H338.61C338.61 206.202 338.671 206.418 338.793 206.602C338.918 206.784 339.088 206.926 339.304 207.028C339.52 207.131 339.766 207.182 340.041 207.182C340.345 207.182 340.604 207.118 340.817 206.99C341.03 206.862 341.192 206.675 341.303 206.428C341.416 206.178 341.473 205.872 341.473 205.511V199.273Z" fill="#525866"/>
<rect x="269.333" width="31.3333" height="50" fill="#F5F7FA"/>
<rect width="31.3333" height="80" transform="translate(269.333 52)" fill="#335CFF"/>
<rect width="31.3333" height="32" transform="translate(269.333 134)" fill="#47C2FF"/>
<rect width="31.3333" height="16" transform="translate(269.333 168)" fill="#7D52F4"/>
<path d="M280.719 199.273H281.98L284.946 206.517H285.048L288.014 199.273H289.276V208H288.287V201.369H288.202L285.475 208H284.52L281.793 201.369H281.708V208H280.719V199.273Z" fill="#525866"/>
<rect x="214" width="31.3333" height="50" fill="#F5F7FA"/>
<rect width="31.3333" height="80" transform="translate(214 52)" fill="#335CFF"/>
<rect width="31.3333" height="32" transform="translate(214 134)" fill="#47C2FF"/>
<rect width="31.3333" height="16" transform="translate(214 168)" fill="#7D52F4"/>
<path d="M227.027 208H225.919L229.123 199.273H230.214L233.419 208H232.311L229.703 200.653H229.635L227.027 208ZM227.436 204.591H231.902V205.528H227.436V204.591Z" fill="#525866"/>
<rect x="158.667" width="31.3333" height="50" fill="#F5F7FA"/>
<rect width="31.3333" height="80" transform="translate(158.667 52)" fill="#335CFF"/>
<rect width="31.3333" height="32" transform="translate(158.667 134)" fill="#47C2FF"/>
<rect width="31.3333" height="16" transform="translate(158.667 168)" fill="#7D52F4"/>
<path d="M170.052 199.273H171.314L174.28 206.517H174.382L177.348 199.273H178.609V208H177.62V201.369H177.535L174.808 208H173.853L171.126 201.369H171.041V208H170.052V199.273Z" fill="#525866"/>
<rect x="103.333" width="31.3333" height="50" fill="#F5F7FA"/>
<rect width="31.3333" height="80" transform="translate(103.333 52)" fill="#335CFF"/>
<rect width="31.3333" height="32" transform="translate(103.333 134)" fill="#47C2FF"/>
<rect width="31.3333" height="16" transform="translate(103.333 168)" fill="#7D52F4"/>
<path d="M116.535 208V199.273H121.768V200.21H117.592V203.159H121.376V204.097H117.592V208H116.535Z" fill="#525866"/>
<rect x="48" width="31.3333" height="50" fill="#F5F7FA"/>
<rect width="31.3333" height="80" transform="translate(48 52)" fill="#335CFF"/>
<rect width="31.3333" height="32" transform="translate(48 134)" fill="#47C2FF"/>
<rect width="31.3333" height="16" transform="translate(48 168)" fill="#7D52F4"/>
<path d="M64.8066 199.273H65.8634V205.511C65.8634 206.068 65.7611 206.541 65.5566 206.93C65.352 207.32 65.0637 207.615 64.6915 207.817C64.3194 208.018 63.8804 208.119 63.3748 208.119C62.8975 208.119 62.4728 208.033 62.1006 207.859C61.7285 207.683 61.4358 207.433 61.2228 207.109C61.0097 206.786 60.9032 206.401 60.9032 205.955H61.9429C61.9429 206.202 62.004 206.418 62.1262 206.602C62.2512 206.784 62.4216 206.926 62.6375 207.028C62.8535 207.131 63.0992 207.182 63.3748 207.182C63.6787 207.182 63.9373 207.118 64.1503 206.99C64.3634 206.862 64.5253 206.675 64.6361 206.428C64.7498 206.178 64.8066 205.872 64.8066 205.511V199.273Z" fill="#525866"/>
</svg>
