<svg width="320" height="124" viewBox="0 0 320 124" fill="none" xmlns="http://www.w3.org/2000/svg">
<g clip-path="url(#clip0_13942_8026)">
<mask id="path-1-outside-1_13942_8026" maskUnits="userSpaceOnUse" x="36" y="-2" width="252" height="128" fill="black">
<rect fill="white" x="36" y="-2" width="252" height="128"/>
<path d="M38 124C38 107.716 41.2074 91.5916 47.4389 76.5472C53.6705 61.5029 62.8043 47.8332 74.3188 36.3187C85.8332 24.8043 99.5029 15.6705 114.547 9.43893C129.592 3.20735 145.716 -2.13538e-06 162 0C178.284 2.13538e-06 194.408 3.20736 209.453 9.43894C224.497 15.6705 238.167 24.8043 249.681 36.3188C261.196 47.8332 270.329 61.5029 276.561 76.5473C282.793 91.5916 286 107.716 286 124L261.2 124C261.2 110.973 258.634 98.0733 253.649 86.0378C248.664 74.0023 241.357 63.0666 232.145 53.855C222.933 44.6434 211.998 37.3364 199.962 32.3512C187.927 27.3659 175.027 24.8 162 24.8C148.973 24.8 136.073 27.3659 124.038 32.3511C112.002 37.3364 101.067 44.6434 91.855 53.855C82.6434 63.0666 75.3364 74.0023 70.3512 86.0378C65.3659 98.0733 62.8 110.973 62.8 124H38Z"/>
</mask>
<path d="M38 124C38 107.716 41.2074 91.5916 47.4389 76.5472C53.6705 61.5029 62.8043 47.8332 74.3188 36.3187C85.8332 24.8043 99.5029 15.6705 114.547 9.43893C129.592 3.20735 145.716 -2.13538e-06 162 0C178.284 2.13538e-06 194.408 3.20736 209.453 9.43894C224.497 15.6705 238.167 24.8043 249.681 36.3188C261.196 47.8332 270.329 61.5029 276.561 76.5473C282.793 91.5916 286 107.716 286 124L261.2 124C261.2 110.973 258.634 98.0733 253.649 86.0378C248.664 74.0023 241.357 63.0666 232.145 53.855C222.933 44.6434 211.998 37.3364 199.962 32.3512C187.927 27.3659 175.027 24.8 162 24.8C148.973 24.8 136.073 27.3659 124.038 32.3511C112.002 37.3364 101.067 44.6434 91.855 53.855C82.6434 63.0666 75.3364 74.0023 70.3512 86.0378C65.3659 98.0733 62.8 110.973 62.8 124H38Z" fill="#E1E4EA"/>
<path d="M38 124C38 107.716 41.2074 91.5916 47.4389 76.5472C53.6705 61.5029 62.8043 47.8332 74.3188 36.3187C85.8332 24.8043 99.5029 15.6705 114.547 9.43893C129.592 3.20735 145.716 -2.13538e-06 162 0C178.284 2.13538e-06 194.408 3.20736 209.453 9.43894C224.497 15.6705 238.167 24.8043 249.681 36.3188C261.196 47.8332 270.329 61.5029 276.561 76.5473C282.793 91.5916 286 107.716 286 124L261.2 124C261.2 110.973 258.634 98.0733 253.649 86.0378C248.664 74.0023 241.357 63.0666 232.145 53.855C222.933 44.6434 211.998 37.3364 199.962 32.3512C187.927 27.3659 175.027 24.8 162 24.8C148.973 24.8 136.073 27.3659 124.038 32.3511C112.002 37.3364 101.067 44.6434 91.855 53.855C82.6434 63.0666 75.3364 74.0023 70.3512 86.0378C65.3659 98.0733 62.8 110.973 62.8 124H38Z" stroke="white" stroke-width="4" mask="url(#path-1-outside-1_13942_8026)"/>
<mask id="path-2-outside-2_13942_8026" maskUnits="userSpaceOnUse" x="160" y="-2" width="93" height="59" fill="black">
<rect fill="white" x="160" y="-2" width="93" height="59"/>
<path d="M162 0C194.887 3.92172e-07 226.427 13.0642 249.681 36.3187L232.145 53.855C213.541 35.2514 188.309 24.8 162 24.8V0Z"/>
</mask>
<path d="M162 0C194.887 3.92172e-07 226.427 13.0642 249.681 36.3187L232.145 53.855C213.541 35.2514 188.309 24.8 162 24.8V0Z" fill="#47C2FF"/>
<path d="M162 0C194.887 3.92172e-07 226.427 13.0642 249.681 36.3187L232.145 53.855C213.541 35.2514 188.309 24.8 162 24.8V0Z" stroke="white" stroke-width="4" mask="url(#path-2-outside-2_13942_8026)"/>
<mask id="path-3-outside-3_13942_8026" maskUnits="userSpaceOnUse" x="36" y="-2" width="128" height="128" fill="black">
<rect fill="white" x="36" y="-2" width="128" height="128"/>
<path d="M38 124C38 91.1131 51.0643 59.5733 74.3188 36.3188C97.5733 13.0642 129.113 -3.92172e-07 162 0V24.8C135.691 24.8 110.459 35.2514 91.855 53.855C73.2514 72.4586 62.8 97.6905 62.8 124H38Z"/>
</mask>
<path d="M38 124C38 91.1131 51.0643 59.5733 74.3188 36.3188C97.5733 13.0642 129.113 -3.92172e-07 162 0V24.8C135.691 24.8 110.459 35.2514 91.855 53.855C73.2514 72.4586 62.8 97.6905 62.8 124H38Z" fill="#335CFF"/>
<path d="M38 124C38 91.1131 51.0643 59.5733 74.3188 36.3188C97.5733 13.0642 129.113 -3.92172e-07 162 0V24.8C135.691 24.8 110.459 35.2514 91.855 53.855C73.2514 72.4586 62.8 97.6905 62.8 124H38Z" stroke="white" stroke-width="4" mask="url(#path-3-outside-3_13942_8026)"/>
<path d="M144.632 69.5653C144.586 69.1619 144.399 68.8494 144.069 68.6278C143.74 68.4034 143.325 68.2912 142.825 68.2912C142.467 68.2912 142.157 68.348 141.896 68.4616C141.635 68.5724 141.432 68.7259 141.287 68.9219C141.145 69.1151 141.074 69.3352 141.074 69.5824C141.074 69.7898 141.122 69.9687 141.218 70.1193C141.318 70.2699 141.447 70.3963 141.606 70.4986C141.768 70.598 141.941 70.6818 142.126 70.75C142.311 70.8153 142.488 70.8693 142.659 70.9119L143.511 71.1335C143.789 71.2017 144.075 71.294 144.368 71.4105C144.66 71.527 144.932 71.6804 145.182 71.8707C145.432 72.0611 145.633 72.2969 145.787 72.5781C145.943 72.8594 146.021 73.196 146.021 73.5881C146.021 74.0824 145.893 74.5213 145.637 74.9048C145.385 75.2884 145.017 75.5909 144.534 75.8125C144.054 76.0341 143.473 76.1449 142.791 76.1449C142.137 76.1449 141.572 76.0412 141.095 75.8338C140.618 75.6264 140.244 75.3324 139.974 74.9517C139.704 74.5682 139.555 74.1136 139.527 73.5881H140.848C140.873 73.9034 140.976 74.1662 141.155 74.3764C141.336 74.5838 141.568 74.7386 141.849 74.8409C142.133 74.9403 142.444 74.9901 142.782 74.9901C143.155 74.9901 143.485 74.9318 143.775 74.8153C144.068 74.696 144.298 74.5312 144.466 74.321C144.633 74.108 144.717 73.8594 144.717 73.5753C144.717 73.3168 144.643 73.1051 144.495 72.9403C144.351 72.7756 144.153 72.6392 143.903 72.5312C143.656 72.4233 143.376 72.3281 143.064 72.2457L142.032 71.9645C141.334 71.7741 140.78 71.4943 140.37 71.125C139.964 70.7557 139.761 70.267 139.761 69.6591C139.761 69.1562 139.897 68.7173 140.17 68.3423C140.443 67.9673 140.812 67.6761 141.278 67.4688C141.744 67.2585 142.27 67.1534 142.855 67.1534C143.446 67.1534 143.967 67.2571 144.419 67.4645C144.873 67.6719 145.231 67.9574 145.493 68.321C145.754 68.6818 145.89 69.0966 145.902 69.5653H144.632ZM148.075 76V67.2727H151.185C151.864 67.2727 152.427 67.3963 152.873 67.6435C153.319 67.8906 153.653 68.2287 153.874 68.6577C154.096 69.0838 154.207 69.5639 154.207 70.098C154.207 70.6349 154.094 71.1179 153.87 71.5469C153.648 71.973 153.313 72.3111 152.864 72.5611C152.418 72.8082 151.857 72.9318 151.181 72.9318H149.042V71.8153H151.062C151.491 71.8153 151.839 71.7415 152.106 71.5938C152.373 71.4432 152.569 71.2386 152.694 70.9801C152.819 70.7216 152.881 70.4276 152.881 70.098C152.881 69.7685 152.819 69.4759 152.694 69.2202C152.569 68.9645 152.371 68.7642 152.101 68.6193C151.834 68.4744 151.482 68.402 151.045 68.402H149.391V76H148.075ZM156.23 76V67.2727H161.702V68.4062H157.547V71.0653H161.416V72.1946H157.547V74.8665H161.753V76H156.23ZM170.985 67.2727V76H169.775L165.338 69.5994H165.258V76H163.941V67.2727H165.16L169.6 73.6818H169.681V67.2727H170.985ZM176.211 76H173.386V67.2727H176.3C177.155 67.2727 177.89 67.4474 178.504 67.7969C179.117 68.1435 179.587 68.642 179.914 69.2926C180.244 69.9403 180.408 70.7173 180.408 71.6236C180.408 72.5327 180.242 73.3139 179.91 73.9673C179.58 74.6207 179.103 75.1236 178.478 75.4759C177.853 75.8253 177.097 76 176.211 76ZM174.702 74.8494H176.138C176.803 74.8494 177.356 74.7244 177.796 74.4744C178.236 74.2216 178.566 73.8565 178.785 73.3793C179.004 72.8991 179.113 72.3139 179.113 71.6236C179.113 70.9389 179.004 70.358 178.785 69.8807C178.569 69.4034 178.246 69.0412 177.817 68.794C177.388 68.5469 176.856 68.4233 176.219 68.4233H174.702V74.8494Z" fill="#525866"/>
<path d="M110.343 111.16V89.8H112.167V111.16H110.343ZM111.447 109.336C110.119 109.336 108.967 109.096 107.991 108.616C107.015 108.12 106.239 107.44 105.663 106.576C105.103 105.712 104.775 104.712 104.679 103.576L107.295 103.432C107.391 104.2 107.615 104.856 107.967 105.4C108.319 105.928 108.783 106.336 109.359 106.624C109.951 106.896 110.663 107.032 111.495 107.032C112.215 107.032 112.831 106.944 113.343 106.768C113.855 106.576 114.239 106.304 114.495 105.952C114.767 105.6 114.903 105.16 114.903 104.632C114.903 104.152 114.791 103.736 114.567 103.384C114.343 103.016 113.911 102.68 113.271 102.376C112.631 102.056 111.695 101.752 110.463 101.464C109.135 101.144 108.071 100.784 107.271 100.384C106.471 99.984 105.895 99.496 105.543 98.92C105.207 98.328 105.039 97.592 105.039 96.712C105.039 95.768 105.271 94.936 105.735 94.216C106.199 93.48 106.855 92.912 107.703 92.512C108.567 92.096 109.599 91.888 110.799 91.888C112.079 91.888 113.167 92.12 114.063 92.584C114.975 93.048 115.695 93.688 116.223 94.504C116.751 95.32 117.079 96.256 117.207 97.312L114.591 97.456C114.511 96.832 114.311 96.272 113.991 95.776C113.687 95.28 113.263 94.896 112.719 94.624C112.175 94.336 111.519 94.192 110.751 94.192C109.791 94.192 109.031 94.416 108.471 94.864C107.911 95.312 107.631 95.904 107.631 96.64C107.631 97.12 107.743 97.52 107.967 97.84C108.207 98.16 108.615 98.44 109.191 98.68C109.783 98.92 110.623 99.168 111.711 99.424C113.151 99.76 114.295 100.168 115.143 100.648C115.991 101.112 116.599 101.664 116.967 102.304C117.335 102.944 117.519 103.672 117.519 104.488C117.519 105.48 117.263 106.344 116.751 107.08C116.239 107.8 115.527 108.36 114.615 108.76C113.703 109.144 112.647 109.336 111.447 109.336ZM123.341 109V96.856H119.741V94.768H121.205C121.845 94.768 122.365 94.688 122.765 94.528C123.165 94.352 123.453 94.064 123.629 93.664C123.805 93.248 123.893 92.68 123.893 91.96H125.933V109H123.341ZM129.683 112.768L130.883 109H129.563V105.976H132.659V108.64L131.147 112.768H129.683ZM141.176 109.384C139.88 109.384 138.736 109.192 137.744 108.808C136.752 108.424 135.976 107.856 135.416 107.104C134.872 106.352 134.6 105.432 134.6 104.344C134.6 103.096 134.976 102.064 135.728 101.248C136.48 100.432 137.488 99.888 138.752 99.616L138.8 100.096C137.776 99.856 136.952 99.416 136.328 98.776C135.72 98.136 135.416 97.296 135.416 96.256C135.416 95.344 135.648 94.536 136.112 93.832C136.576 93.128 137.232 92.576 138.08 92.176C138.944 91.776 139.976 91.576 141.176 91.576C142.36 91.576 143.384 91.776 144.248 92.176C145.112 92.576 145.768 93.128 146.216 93.832C146.68 94.536 146.912 95.344 146.912 96.256C146.912 97.296 146.608 98.136 146 98.776C145.392 99.4 144.568 99.84 143.528 100.096L143.576 99.616C144.856 99.888 145.872 100.432 146.624 101.248C147.376 102.064 147.752 103.096 147.752 104.344C147.752 105.432 147.472 106.352 146.912 107.104C146.368 107.856 145.6 108.424 144.608 108.808C143.616 109.192 142.472 109.384 141.176 109.384ZM141.176 107.008C142.36 107.008 143.296 106.768 143.984 106.288C144.688 105.792 145.04 105.056 145.04 104.08C145.04 103.152 144.72 102.408 144.08 101.848C143.456 101.288 142.488 101.008 141.176 101.008C139.864 101.008 138.888 101.288 138.248 101.848C137.608 102.408 137.288 103.152 137.288 104.08C137.288 105.056 137.64 105.792 138.344 106.288C139.048 106.768 139.992 107.008 141.176 107.008ZM141.176 98.872C142.152 98.872 142.904 98.672 143.432 98.272C143.976 97.856 144.248 97.224 144.248 96.376C144.248 95.64 143.984 95.048 143.456 94.6C142.944 94.152 142.184 93.928 141.176 93.928C140.168 93.928 139.4 94.152 138.872 94.6C138.344 95.048 138.08 95.64 138.08 96.376C138.08 97.224 138.352 97.856 138.896 98.272C139.44 98.672 140.2 98.872 141.176 98.872ZM156.752 109.384C155.344 109.384 154.12 109.024 153.08 108.304C152.04 107.584 151.24 106.56 150.68 105.232C150.12 103.904 149.84 102.328 149.84 100.504C149.84 98.68 150.12 97.104 150.68 95.776C151.256 94.432 152.056 93.4 153.08 92.68C154.12 91.944 155.344 91.576 156.752 91.576C158.176 91.576 159.4 91.944 160.424 92.68C161.464 93.4 162.264 94.424 162.824 95.752C163.4 97.08 163.688 98.664 163.688 100.504C163.688 102.328 163.408 103.904 162.848 105.232C162.288 106.56 161.488 107.584 160.448 108.304C159.408 109.024 158.176 109.384 156.752 109.384ZM156.752 107.008C158.112 107.008 159.16 106.448 159.896 105.328C160.632 104.208 161 102.6 161 100.504C161 99.096 160.832 97.904 160.496 96.928C160.176 95.952 159.696 95.216 159.056 94.72C158.432 94.208 157.664 93.952 156.752 93.952C155.856 93.952 155.088 94.208 154.448 94.72C153.824 95.216 153.344 95.952 153.008 96.928C152.688 97.904 152.528 99.096 152.528 100.504C152.528 102.6 152.896 104.208 153.632 105.328C154.368 106.448 155.408 107.008 156.752 107.008ZM172.947 109.384C171.539 109.384 170.315 109.024 169.275 108.304C168.235 107.584 167.435 106.56 166.875 105.232C166.315 103.904 166.035 102.328 166.035 100.504C166.035 98.68 166.315 97.104 166.875 95.776C167.451 94.432 168.251 93.4 169.275 92.68C170.315 91.944 171.539 91.576 172.947 91.576C174.371 91.576 175.595 91.944 176.619 92.68C177.659 93.4 178.459 94.424 179.019 95.752C179.595 97.08 179.883 98.664 179.883 100.504C179.883 102.328 179.603 103.904 179.043 105.232C178.483 106.56 177.683 107.584 176.643 108.304C175.603 109.024 174.371 109.384 172.947 109.384ZM172.947 107.008C174.307 107.008 175.355 106.448 176.091 105.328C176.827 104.208 177.195 102.6 177.195 100.504C177.195 99.096 177.027 97.904 176.691 96.928C176.371 95.952 175.891 95.216 175.251 94.72C174.627 94.208 173.859 93.952 172.947 93.952C172.051 93.952 171.283 94.208 170.643 94.72C170.019 95.216 169.539 95.952 169.203 96.928C168.883 97.904 168.723 99.096 168.723 100.504C168.723 102.6 169.091 104.208 169.827 105.328C170.563 106.448 171.603 107.008 172.947 107.008ZM181.594 109V105.976H184.69V109H181.594ZM193.315 109.384C191.907 109.384 190.683 109.024 189.643 108.304C188.603 107.584 187.803 106.56 187.243 105.232C186.683 103.904 186.403 102.328 186.403 100.504C186.403 98.68 186.683 97.104 187.243 95.776C187.819 94.432 188.619 93.4 189.643 92.68C190.683 91.944 191.907 91.576 193.315 91.576C194.739 91.576 195.963 91.944 196.987 92.68C198.027 93.4 198.827 94.424 199.387 95.752C199.963 97.08 200.251 98.664 200.251 100.504C200.251 102.328 199.971 103.904 199.411 105.232C198.851 106.56 198.051 107.584 197.011 108.304C195.971 109.024 194.739 109.384 193.315 109.384ZM193.315 107.008C194.675 107.008 195.723 106.448 196.459 105.328C197.195 104.208 197.563 102.6 197.563 100.504C197.563 99.096 197.395 97.904 197.059 96.928C196.739 95.952 196.259 95.216 195.619 94.72C194.995 94.208 194.227 93.952 193.315 93.952C192.419 93.952 191.651 94.208 191.011 94.72C190.387 95.216 189.907 95.952 189.571 96.928C189.251 97.904 189.091 99.096 189.091 100.504C189.091 102.6 189.459 104.208 190.195 105.328C190.931 106.448 191.971 107.008 193.315 107.008ZM209.51 109.384C208.102 109.384 206.878 109.024 205.838 108.304C204.798 107.584 203.998 106.56 203.438 105.232C202.878 103.904 202.598 102.328 202.598 100.504C202.598 98.68 202.878 97.104 203.438 95.776C204.014 94.432 204.814 93.4 205.838 92.68C206.878 91.944 208.102 91.576 209.51 91.576C210.934 91.576 212.158 91.944 213.182 92.68C214.222 93.4 215.022 94.424 215.582 95.752C216.158 97.08 216.446 98.664 216.446 100.504C216.446 102.328 216.166 103.904 215.606 105.232C215.046 106.56 214.246 107.584 213.206 108.304C212.166 109.024 210.934 109.384 209.51 109.384ZM209.51 107.008C210.87 107.008 211.918 106.448 212.654 105.328C213.39 104.208 213.758 102.6 213.758 100.504C213.758 99.096 213.59 97.904 213.254 96.928C212.934 95.952 212.454 95.216 211.814 94.72C211.19 94.208 210.422 93.952 209.51 93.952C208.614 93.952 207.846 94.208 207.206 94.72C206.582 95.216 206.102 95.952 205.766 96.928C205.446 97.904 205.286 99.096 205.286 100.504C205.286 102.6 205.654 104.208 206.39 105.328C207.126 106.448 208.166 107.008 209.51 107.008Z" fill="#0E121B"/>
</g>
<defs>
<clipPath id="clip0_13942_8026">
<rect width="320" height="124" fill="white"/>
</clipPath>
</defs>
</svg>
