<svg width="746" height="973" viewBox="0 0 746 973" fill="none" xmlns="http://www.w3.org/2000/svg">
<ellipse cx="254.758" cy="634.746" rx="1" ry="1.102" fill="white" fill-opacity="0.2"/>
<ellipse cx="107.693" cy="902.117" rx="1" ry="1.102" fill="white" fill-opacity="0.2"/>
<ellipse cx="42.7324" cy="357.669" rx="1" ry="1.102" fill="white" fill-opacity="0.2"/>
<ellipse cx="689.438" cy="562.784" rx="1" ry="1.102" fill="white" fill-opacity="0.2"/>
<ellipse cx="440.184" cy="579.361" rx="1" ry="1.102" fill="white" fill-opacity="0.2"/>
<ellipse cx="222.709" cy="692.219" rx="1" ry="1.102" fill="white" fill-opacity="0.2"/>
<ellipse cx="505.426" cy="352.642" rx="1" ry="1.102" fill="white" fill-opacity="0.2"/>
<ellipse cx="262.826" cy="212.138" rx="1" ry="1.102" fill="white" fill-opacity="0.2"/>
<ellipse cx="14.0977" cy="467.169" rx="1" ry="1.102" fill="white" fill-opacity="0.2"/>
<ellipse cx="92.4941" cy="842.969" rx="1" ry="1.102" fill="white" fill-opacity="0.2"/>
<ellipse cx="688.744" cy="136.494" rx="1" ry="1.102" fill="white" fill-opacity="0.2"/>
<ellipse cx="661.611" cy="282.152" rx="1" ry="1.102" fill="white" fill-opacity="0.2"/>
<ellipse cx="552.287" cy="192.172" rx="1" ry="1.102" fill="white" fill-opacity="0.2"/>
<ellipse cx="162.613" cy="480.9" rx="1" ry="1.102" fill="white" fill-opacity="0.2"/>
<ellipse cx="441.275" cy="794.865" rx="1" ry="1.102" fill="white" fill-opacity="0.2"/>
<ellipse cx="206.889" cy="532.582" rx="1" ry="1.102" fill="white" fill-opacity="0.2"/>
<ellipse cx="447.467" cy="170.418" rx="1" ry="1.102" fill="white" fill-opacity="0.2"/>
<ellipse cx="90.3438" cy="898.5" rx="1" ry="1.102" fill="white" fill-opacity="0.2"/>
<ellipse cx="185.176" cy="478.586" rx="1" ry="1.102" fill="white" fill-opacity="0.2"/>
<ellipse cx="572.898" cy="646.574" rx="1" ry="1.102" fill="white" fill-opacity="0.2"/>
<ellipse cx="194.764" cy="278.006" rx="1" ry="1.102" fill="white" fill-opacity="0.2"/>
<ellipse cx="457.768" cy="487.051" rx="1" ry="1.102" fill="white" fill-opacity="0.2"/>
<ellipse cx="569.799" cy="313.579" rx="1" ry="1.102" fill="white" fill-opacity="0.2"/>
<ellipse cx="473.969" cy="379.001" rx="1.5" ry="1.65323" fill="white" fill-opacity="0.2"/>
<ellipse cx="407.727" cy="358.897" rx="1.5" ry="1.65323" fill="white" fill-opacity="0.2"/>
<ellipse cx="441.734" cy="913.513" rx="1.5" ry="1.65323" fill="white" fill-opacity="0.2"/>
<ellipse cx="740.854" cy="362.434" rx="1.5" ry="1.65323" fill="white" fill-opacity="0.2"/>
<ellipse cx="454.555" cy="292.418" rx="1.5" ry="1.65323" fill="white" fill-opacity="0.2"/>
<ellipse cx="415.584" cy="372.788" rx="1.5" ry="1.65323" fill="white" fill-opacity="0.2"/>
<ellipse cx="216.754" cy="335.236" rx="1.5" ry="1.65323" fill="white" fill-opacity="0.2"/>
<ellipse cx="652.566" cy="27.7767" rx="1.5" ry="1.65323" fill="white" fill-opacity="0.2"/>
<ellipse cx="449.49" cy="449.728" rx="1.5" ry="1.65323" fill="white" fill-opacity="0.2"/>
<ellipse cx="478" cy="471.623" rx="1.5" ry="1.65323" fill="white" fill-opacity="0.2"/>
<ellipse cx="231.654" cy="239.677" rx="1.5" ry="1.65323" fill="white" fill-opacity="0.2"/>
<ellipse cx="55.7461" cy="650.796" rx="1.5" ry="1.65323" fill="white" fill-opacity="0.2"/>
<ellipse cx="2.82031" cy="0.466523" rx="1.5" ry="1.65323" fill="white" fill-opacity="0.2"/>
<ellipse cx="668.703" cy="134.049" rx="1.5" ry="1.65323" fill="white" fill-opacity="0.2"/>
<ellipse cx="401.002" cy="817.855" rx="1.5" ry="1.65323" fill="white" fill-opacity="0.2"/>
<ellipse cx="477.791" cy="911.678" rx="1.5" ry="1.65323" fill="white" fill-opacity="0.2"/>
<ellipse cx="12.5586" cy="729.209" rx="1.5" ry="1.65323" fill="white" fill-opacity="0.2"/>
<ellipse cx="556.961" cy="531.658" rx="0.5" ry="0.550921" fill="white" fill-opacity="0.2"/>
<ellipse cx="577.227" cy="271.067" rx="0.5" ry="0.550921" fill="white" fill-opacity="0.2"/>
<ellipse cx="35.5078" cy="384.233" rx="0.5" ry="0.550921" fill="white" fill-opacity="0.2"/>
<ellipse cx="273.387" cy="112.231" rx="0.5" ry="0.550921" fill="white" fill-opacity="0.2"/>
<ellipse cx="465.854" cy="639.065" rx="0.5" ry="0.550921" fill="white" fill-opacity="0.2"/>
<ellipse cx="201.777" cy="810.737" rx="0.5" ry="0.550921" fill="white" fill-opacity="0.2"/>
<ellipse cx="654.182" cy="564.129" rx="0.5" ry="0.550921" fill="white" fill-opacity="0.2"/>
<ellipse cx="97.5215" cy="625.831" rx="0.5" ry="0.550921" fill="white" fill-opacity="0.2"/>
<ellipse cx="110.465" cy="84.1152" rx="0.5" ry="0.550921" fill="white" fill-opacity="0.2"/>
<ellipse cx="256.496" cy="269.915" rx="0.5" ry="0.550921" fill="white" fill-opacity="0.2"/>
<ellipse cx="309.102" cy="340.963" rx="0.5" ry="0.550921" fill="white" fill-opacity="0.2"/>
<ellipse cx="259.887" cy="384.093" rx="0.5" ry="0.550921" fill="white" fill-opacity="0.2"/>
<ellipse cx="1.37109" cy="464.099" rx="0.5" ry="0.550921" fill="white" fill-opacity="0.2"/>
<ellipse cx="473.154" cy="715.704" rx="0.5" ry="0.550921" fill="white" fill-opacity="0.2"/>
<ellipse cx="114.207" cy="45.4977" rx="0.5" ry="0.550921" fill="white" fill-opacity="0.2"/>
<ellipse cx="40.6172" cy="76.8382" rx="0.5" ry="0.550921" fill="white" fill-opacity="0.2"/>
<ellipse cx="682.461" cy="249.501" rx="0.5" ry="0.550921" fill="white" fill-opacity="0.2"/>
<ellipse cx="700.41" cy="843.036" rx="0.5" ry="0.550921" fill="white" fill-opacity="0.2"/>
<ellipse cx="556.742" cy="97.47" rx="0.5" ry="0.550921" fill="white" fill-opacity="0.2"/>
<ellipse cx="169.041" cy="664.743" rx="0.5" ry="0.550921" fill="white" fill-opacity="0.2"/>
<ellipse cx="342.701" cy="570.127" rx="0.5" ry="0.550921" fill="white" fill-opacity="0.2"/>
<ellipse cx="336.777" cy="22.0994" rx="0.5" ry="0.550921" fill="white" fill-opacity="0.2"/>
<ellipse cx="129.816" cy="73.9576" rx="0.5" ry="0.550921" fill="white" fill-opacity="0.2"/>
<ellipse cx="301.887" cy="696.325" rx="0.5" ry="0.550921" fill="white" fill-opacity="0.2"/>
<ellipse cx="574.189" cy="402.417" rx="0.5" ry="0.550921" fill="white" fill-opacity="0.2"/>
<ellipse cx="516.584" cy="103.503" rx="0.5" ry="0.550921" fill="white" fill-opacity="0.2"/>
<ellipse cx="74.2363" cy="320.932" rx="0.5" ry="0.550921" fill="white" fill-opacity="0.2"/>
<ellipse cx="567.816" cy="17.0292" rx="0.5" ry="0.550921" fill="white" fill-opacity="0.2"/>
<ellipse cx="169.33" cy="923.154" rx="0.5" ry="0.550921" fill="white" fill-opacity="0.2"/>
<ellipse cx="369.746" cy="708.418" rx="0.5" ry="0.550921" fill="white" fill-opacity="0.2"/>
<ellipse cx="377.805" cy="433.193" rx="0.5" ry="0.550921" fill="white" fill-opacity="0.2"/>
<ellipse cx="195.889" cy="727.308" rx="0.5" ry="0.550921" fill="white" fill-opacity="0.2"/>
<ellipse cx="608.658" cy="177.202" rx="0.5" ry="0.550921" fill="white" fill-opacity="0.2"/>
<ellipse cx="198.201" cy="188.994" rx="0.5" ry="0.550921" fill="white" fill-opacity="0.2"/>
<ellipse cx="35.5039" cy="711.876" rx="0.5" ry="0.550921" fill="white" fill-opacity="0.2"/>
<ellipse cx="171.953" cy="885.731" rx="0.5" ry="0.550921" fill="white" fill-opacity="0.2"/>
<ellipse cx="329.334" cy="249.464" rx="0.5" ry="0.550921" fill="white" fill-opacity="0.2"/>
<ellipse cx="132.521" cy="588.115" rx="0.5" ry="0.550921" fill="white" fill-opacity="0.2"/>
<ellipse cx="49.5742" cy="757.256" rx="0.5" ry="0.550921" fill="white" fill-opacity="0.2"/>
<ellipse cx="624.955" cy="107.684" rx="0.5" ry="0.550921" fill="white" fill-opacity="0.2"/>
<ellipse cx="6.41992" cy="322.314" rx="0.5" ry="0.550921" fill="white" fill-opacity="0.2"/>
<ellipse cx="514.807" cy="760.726" rx="0.5" ry="0.550921" fill="white" fill-opacity="0.2"/>
<ellipse cx="631.797" cy="188.512" rx="0.5" ry="0.550921" fill="white" fill-opacity="0.2"/>
<ellipse cx="64.9785" cy="232.826" rx="0.5" ry="0.550921" fill="white" fill-opacity="0.2"/>
<ellipse cx="89.8203" cy="313.407" rx="0.5" ry="0.550921" fill="white" fill-opacity="0.2"/>
<ellipse cx="520.09" cy="101.927" rx="0.5" ry="0.550921" fill="white" fill-opacity="0.2"/>
<ellipse cx="6.58984" cy="333.223" rx="0.5" ry="0.550921" fill="white" fill-opacity="0.2"/>
<ellipse cx="411.039" cy="351.094" rx="0.5" ry="0.550921" fill="white" fill-opacity="0.2"/>
<ellipse cx="23.8223" cy="136.789" rx="0.5" ry="0.550921" fill="white" fill-opacity="0.2"/>
<ellipse cx="555.686" cy="298.885" rx="0.5" ry="0.550921" fill="white" fill-opacity="0.2"/>
<ellipse cx="425.994" cy="859.96" rx="0.5" ry="0.550921" fill="white" fill-opacity="0.2"/>
<ellipse cx="411.592" cy="408.014" rx="0.5" ry="0.550921" fill="white" fill-opacity="0.2"/>
<ellipse cx="329.66" cy="156.259" rx="0.5" ry="0.550921" fill="white" fill-opacity="0.2"/>
<ellipse cx="737.979" cy="126.091" rx="0.5" ry="0.550921" fill="white" fill-opacity="0.2"/>
<ellipse cx="531.037" cy="79.3034" rx="0.5" ry="0.550921" fill="white" fill-opacity="0.2"/>
<ellipse cx="331.129" cy="43.3361" rx="0.5" ry="0.550921" fill="white" fill-opacity="0.2"/>
<ellipse cx="129.236" cy="967.571" rx="0.5" ry="0.550921" fill="white" fill-opacity="0.2"/>
<ellipse cx="206.09" cy="599.821" rx="0.5" ry="0.550921" fill="white" fill-opacity="0.2"/>
<ellipse cx="321.898" cy="301.316" rx="0.5" ry="0.550921" fill="white" fill-opacity="0.2"/>
<ellipse cx="276.334" cy="927.141" rx="0.5" ry="0.550921" fill="white" fill-opacity="0.2"/>
<ellipse cx="681.244" cy="385.372" rx="0.5" ry="0.550921" fill="white" fill-opacity="0.2"/>
<ellipse cx="365.592" cy="129.312" rx="0.5" ry="0.550921" fill="white" fill-opacity="0.2"/>
<ellipse cx="588.656" cy="135.541" rx="0.5" ry="0.550921" fill="white" fill-opacity="0.2"/>
<ellipse cx="489.945" cy="111.184" rx="0.5" ry="0.550921" fill="white" fill-opacity="0.2"/>
<ellipse cx="442.479" cy="23.3158" rx="0.5" ry="0.550921" fill="white" fill-opacity="0.2"/>
<ellipse cx="700.029" cy="789.459" rx="0.5" ry="0.550921" fill="white" fill-opacity="0.2"/>
<ellipse cx="336.896" cy="577.178" rx="0.5" ry="0.550921" fill="white" fill-opacity="0.2"/>
<ellipse cx="459.35" cy="156.859" rx="0.5" ry="0.550921" fill="white" fill-opacity="0.2"/>
<ellipse cx="521.93" cy="210.855" rx="0.5" ry="0.550921" fill="white" fill-opacity="0.2"/>
<ellipse cx="378.824" cy="750.625" rx="0.5" ry="0.550921" fill="white" fill-opacity="0.2"/>
<ellipse cx="54.4336" cy="211.114" rx="0.5" ry="0.550921" fill="white" fill-opacity="0.2"/>
<ellipse cx="666.344" cy="303.443" rx="0.5" ry="0.550921" fill="white" fill-opacity="0.2"/>
<ellipse cx="425.043" cy="52.6218" rx="0.5" ry="0.550921" fill="white" fill-opacity="0.2"/>
<ellipse cx="580.42" cy="576.972" rx="0.5" ry="0.550921" fill="white" fill-opacity="0.2"/>
<ellipse cx="326.52" cy="446.382" rx="0.5" ry="0.550921" fill="white" fill-opacity="0.2"/>
<ellipse cx="402.545" cy="26.5431" rx="0.5" ry="0.550921" fill="white" fill-opacity="0.2"/>
<ellipse cx="449.631" cy="154.093" rx="0.5" ry="0.550921" fill="white" fill-opacity="0.2"/>
<ellipse cx="90.7891" cy="669.071" rx="0.5" ry="0.550921" fill="white" fill-opacity="0.2"/>
<ellipse cx="266.873" cy="924.249" rx="0.5" ry="0.550921" fill="white" fill-opacity="0.2"/>
<ellipse cx="391.107" cy="553.054" rx="0.5" ry="0.550921" fill="white" fill-opacity="0.2"/>
<ellipse cx="559.506" cy="139.519" rx="0.5" ry="0.550921" fill="white" fill-opacity="0.2"/>
<ellipse cx="88.6719" cy="907.751" rx="0.5" ry="0.550921" fill="white" fill-opacity="0.2"/>
<ellipse cx="669.041" cy="56.0256" rx="0.5" ry="0.550921" fill="white" fill-opacity="0.2"/>
<ellipse cx="219.535" cy="802.418" rx="0.5" ry="0.550921" fill="white" fill-opacity="0.2"/>
<ellipse cx="291.449" cy="773.411" rx="0.5" ry="0.550921" fill="white" fill-opacity="0.2"/>
<ellipse cx="110.684" cy="270.391" rx="0.5" ry="0.550921" fill="white" fill-opacity="0.2"/>
<ellipse cx="692.316" cy="456.15" rx="0.5" ry="0.550921" fill="white" fill-opacity="0.2"/>
<ellipse cx="556.812" cy="907.116" rx="0.5" ry="0.550921" fill="white" fill-opacity="0.2"/>
<ellipse cx="273.074" cy="714.483" rx="0.5" ry="0.550921" fill="white" fill-opacity="0.2"/>
<ellipse cx="442.574" cy="387.563" rx="0.5" ry="0.550921" fill="white" fill-opacity="0.2"/>
<ellipse cx="431.799" cy="202.78" rx="0.5" ry="0.550921" fill="white" fill-opacity="0.2"/>
<ellipse cx="281.738" cy="877.759" rx="0.5" ry="0.550921" fill="white" fill-opacity="0.2"/>
<ellipse cx="698.883" cy="947.779" rx="0.5" ry="0.550921" fill="white" fill-opacity="0.2"/>
<ellipse cx="327.629" cy="381.664" rx="0.5" ry="0.550921" fill="white" fill-opacity="0.2"/>
<ellipse cx="74.7266" cy="635.373" rx="0.5" ry="0.550921" fill="white" fill-opacity="0.2"/>
<ellipse cx="532.896" cy="595.334" rx="0.5" ry="0.550921" fill="white" fill-opacity="0.2"/>
<ellipse cx="574.697" cy="278.043" rx="0.5" ry="0.550921" fill="white" fill-opacity="0.2"/>
<ellipse cx="20.332" cy="1.47841" rx="0.5" ry="0.550921" fill="white" fill-opacity="0.2"/>
<ellipse cx="615.215" cy="753.555" rx="0.5" ry="0.550921" fill="white" fill-opacity="0.2"/>
<ellipse cx="327.66" cy="457.183" rx="0.5" ry="0.550921" fill="white" fill-opacity="0.2"/>
<ellipse cx="312.539" cy="450.544" rx="0.5" ry="0.550921" fill="white" fill-opacity="0.2"/>
<ellipse cx="110.012" cy="66.4502" rx="0.5" ry="0.550921" fill="white" fill-opacity="0.2"/>
<ellipse cx="160.807" cy="831.954" rx="0.5" ry="0.550921" fill="white" fill-opacity="0.2"/>
<ellipse cx="605.85" cy="126.13" rx="0.5" ry="0.550921" fill="white" fill-opacity="0.2"/>
<ellipse cx="137.633" cy="215.333" rx="0.5" ry="0.550921" fill="white" fill-opacity="0.2"/>
<ellipse cx="79.0059" cy="614.526" rx="0.5" ry="0.550921" fill="white" fill-opacity="0.2"/>
<ellipse cx="427.713" cy="649.539" rx="0.5" ry="0.550921" fill="white" fill-opacity="0.2"/>
<ellipse cx="447.801" cy="663.46" rx="0.5" ry="0.550921" fill="white" fill-opacity="0.2"/>
<ellipse cx="66.6211" cy="481.18" rx="0.5" ry="0.550921" fill="white" fill-opacity="0.2"/>
<ellipse cx="651.77" cy="734.045" rx="0.5" ry="0.550921" fill="white" fill-opacity="0.2"/>
<ellipse cx="542.297" cy="864.46" rx="0.5" ry="0.550921" fill="white" fill-opacity="0.2"/>
<ellipse cx="67.1973" cy="747.421" rx="0.5" ry="0.550921" fill="white" fill-opacity="0.2"/>
<ellipse cx="342.996" cy="888.439" rx="0.5" ry="0.550921" fill="white" fill-opacity="0.2"/>
<ellipse cx="707.982" cy="105.442" rx="0.5" ry="0.550921" fill="white" fill-opacity="0.2"/>
<ellipse cx="264.398" cy="178.484" rx="0.5" ry="0.550921" fill="white" fill-opacity="0.2"/>
<ellipse cx="585.822" cy="754.472" rx="0.5" ry="0.550921" fill="white" fill-opacity="0.2"/>
<ellipse cx="350.201" cy="491.923" rx="0.5" ry="0.550921" fill="white" fill-opacity="0.2"/>
<ellipse cx="82.1582" cy="282.172" rx="0.5" ry="0.550921" fill="white" fill-opacity="0.2"/>
<ellipse cx="295.277" cy="232.828" rx="0.5" ry="0.550921" fill="white" fill-opacity="0.2"/>
<ellipse cx="559.473" cy="800.547" rx="0.5" ry="0.550921" fill="white" fill-opacity="0.2"/>
<ellipse cx="97.5625" cy="967.158" rx="0.5" ry="0.550921" fill="white" fill-opacity="0.2"/>
<ellipse cx="641.146" cy="287.44" rx="0.5" ry="0.550921" fill="white" fill-opacity="0.2"/>
<ellipse cx="470.582" cy="670.16" rx="0.5" ry="0.550921" fill="white" fill-opacity="0.2"/>
<ellipse cx="250.164" cy="577.747" rx="0.5" ry="0.550921" fill="white" fill-opacity="0.2"/>
<ellipse cx="558.863" cy="282.209" rx="0.5" ry="0.550921" fill="white" fill-opacity="0.2"/>
<ellipse cx="445.398" cy="526.407" rx="0.5" ry="0.550921" fill="white" fill-opacity="0.2"/>
<ellipse cx="682.359" cy="155.518" rx="0.5" ry="0.550921" fill="white" fill-opacity="0.2"/>
<ellipse cx="0.5" cy="930.377" rx="0.5" ry="0.550921" fill="white" fill-opacity="0.2"/>
<ellipse cx="175.656" cy="672.063" rx="0.5" ry="0.550921" fill="white" fill-opacity="0.2"/>
<ellipse cx="725.689" cy="898.959" rx="0.5" ry="0.550921" fill="white" fill-opacity="0.2"/>
<path d="M714.537 784.504L715.403 786.157H713.671L714.537 784.504Z" fill="white" fill-opacity="0.2"/>
<path d="M654.572 619.546L655.438 621.199H653.706L654.572 619.546Z" fill="white" fill-opacity="0.2"/>
<path d="M252.99 847.658L253.856 849.311H252.124L252.99 847.658Z" fill="white" fill-opacity="0.2"/>
<path d="M623.725 557.912L624.591 559.565H622.859L623.725 557.912Z" fill="white" fill-opacity="0.2"/>
<path d="M548.914 953.276L549.78 954.929H548.048L548.914 953.276Z" fill="white" fill-opacity="0.2"/>
<path d="M177.123 348.255L177.989 349.908H176.257L177.123 348.255Z" fill="white" fill-opacity="0.2"/>
<path d="M229.734 941.667L230.6 943.32H228.868L229.734 941.667Z" fill="white" fill-opacity="0.2"/>
<path d="M733.475 146.067L734.341 147.72H732.609L733.475 146.067Z" fill="white" fill-opacity="0.2"/>
<path d="M694.203 869.479L695.069 871.132H693.337L694.203 869.479Z" fill="white" fill-opacity="0.2"/>
<path d="M241.354 633.388L242.22 635.041H240.487L241.354 633.388Z" fill="white" fill-opacity="0.2"/>
<path d="M550.762 767.215L551.628 768.868H549.896L550.762 767.215Z" fill="white" fill-opacity="0.2"/>
<path d="M530.436 897.497L531.302 899.15H529.57L530.436 897.497Z" fill="white" fill-opacity="0.2"/>
<path d="M266.596 21.8628L266.808 22.731L267.596 22.9648L266.808 23.1986L266.596 24.0668L266.384 23.1986L265.596 22.9648L266.384 22.731L266.596 21.8628Z" fill="white" fill-opacity="0.2"/>
<path d="M138.031 486.929L138.243 487.797L139.031 488.031L138.243 488.265L138.031 489.133L137.819 488.265L137.031 488.031L137.819 487.797L138.031 486.929Z" fill="white" fill-opacity="0.2"/>
<path d="M678.955 146.872L679.167 147.74L679.955 147.974L679.167 148.208L678.955 149.076L678.743 148.208L677.955 147.974L678.743 147.74L678.955 146.872Z" fill="white" fill-opacity="0.2"/>
<path d="M630.875 409.847L631.087 410.715L631.875 410.949L631.087 411.182L630.875 412.051L630.663 411.182L629.875 410.949L630.663 410.715L630.875 409.847Z" fill="white" fill-opacity="0.2"/>
<path d="M231.539 107.154L231.751 108.022L232.539 108.256L231.751 108.49L231.539 109.358L231.327 108.49L230.539 108.256L231.327 108.022L231.539 107.154Z" fill="white" fill-opacity="0.2"/>
<path d="M22.3516 360.66L22.5637 361.528L23.3516 361.762L22.5637 361.996L22.3516 362.864L22.1394 361.996L21.3516 361.762L22.1394 361.528L22.3516 360.66Z" fill="white" fill-opacity="0.2"/>
<path d="M262.51 759.755L262.722 760.624L263.51 760.857L262.722 761.091L262.51 761.959L262.298 761.091L261.51 760.857L262.298 760.624L262.51 759.755Z" fill="white" fill-opacity="0.2"/>
<path d="M558.318 800.972L558.53 801.84L559.318 802.074L558.53 802.307L558.318 803.176L558.106 802.307L557.318 802.074L558.106 801.84L558.318 800.972Z" fill="white" fill-opacity="0.2"/>
<path d="M483.463 529.534L483.675 530.402L484.463 530.636L483.675 530.869L483.463 531.738L483.251 530.869L482.463 530.636L483.251 530.402L483.463 529.534Z" fill="white" fill-opacity="0.2"/>
<path d="M381.477 810.02L381.689 810.889L382.477 811.122L381.689 811.356L381.477 812.224L381.264 811.356L380.477 811.122L381.264 810.889L381.477 810.02Z" fill="white" fill-opacity="0.2"/>
<path d="M326.324 363.414L326.536 364.282L327.324 364.516L326.536 364.75L326.324 365.618L326.112 364.75L325.324 364.516L326.112 364.282L326.324 363.414Z" fill="white" fill-opacity="0.2"/>
<path d="M411.713 471.772L411.925 472.64L412.713 472.874L411.925 473.108L411.713 473.976L411.501 473.108L410.713 472.874L411.501 472.64L411.713 471.772Z" fill="white" fill-opacity="0.2"/>
<path d="M536.879 164.785L537.091 165.653L537.879 165.886L537.091 166.12L536.879 166.988L536.667 166.12L535.879 165.886L536.667 165.653L536.879 164.785Z" fill="white" fill-opacity="0.2"/>
<path d="M295.27 550.996L295.482 551.865L296.27 552.098L295.482 552.332L295.27 553.2L295.057 552.332L294.27 552.098L295.057 551.865L295.27 550.996Z" fill="white" fill-opacity="0.2"/>
<path d="M360.217 442.251L360.429 443.119L361.217 443.353L360.429 443.586L360.217 444.455L360.005 443.586L359.217 443.353L360.005 443.119L360.217 442.251Z" fill="white" fill-opacity="0.2"/>
<path d="M373.303 744.015L373.515 744.883L374.303 745.117L373.515 745.351L373.303 746.219L373.091 745.351L372.303 745.117L373.091 744.883L373.303 744.015Z" fill="white" fill-opacity="0.2"/>
<path d="M312.785 507.449L312.997 508.317L313.785 508.551L312.997 508.784L312.785 509.653L312.573 508.784L311.785 508.551L312.573 508.317L312.785 507.449Z" fill="white" fill-opacity="0.2"/>
<path d="M330.242 803.734L330.454 804.602L331.242 804.836L330.454 805.07L330.242 805.938L330.03 805.07L329.242 804.836L330.03 804.602L330.242 803.734Z" fill="white" fill-opacity="0.2"/>
</svg>
