<svg width="1440" height="989" viewBox="0 0 1440 989" fill="none" xmlns="http://www.w3.org/2000/svg">
<ellipse cx="1147.13" cy="406.368" rx="1" ry="1.102" fill="white" fill-opacity="0.2"/>
<ellipse cx="254.758" cy="650.461" rx="1" ry="1.102" fill="white" fill-opacity="0.2"/>
<ellipse cx="980.432" cy="618.276" rx="1" ry="1.102" fill="white" fill-opacity="0.2"/>
<ellipse cx="107.693" cy="917.832" rx="1" ry="1.102" fill="white" fill-opacity="0.2"/>
<ellipse cx="876.541" cy="729.352" rx="1" ry="1.102" fill="white" fill-opacity="0.2"/>
<ellipse cx="1392.48" cy="851.685" rx="1" ry="1.102" fill="white" fill-opacity="0.2"/>
<ellipse cx="1038.96" cy="259.357" rx="1" ry="1.102" fill="white" fill-opacity="0.2"/>
<ellipse cx="1218.54" cy="481.086" rx="1" ry="1.102" fill="white" fill-opacity="0.2"/>
<ellipse cx="1097.7" cy="826.346" rx="1" ry="1.102" fill="white" fill-opacity="0.2"/>
<ellipse cx="855.836" cy="614.19" rx="1" ry="1.102" fill="white" fill-opacity="0.2"/>
<ellipse cx="42.7324" cy="373.384" rx="1" ry="1.102" fill="white" fill-opacity="0.2"/>
<ellipse cx="1058.22" cy="585.16" rx="1" ry="1.102" fill="white" fill-opacity="0.2"/>
<ellipse cx="689.438" cy="578.498" rx="1" ry="1.102" fill="white" fill-opacity="0.2"/>
<ellipse cx="440.184" cy="595.076" rx="1" ry="1.102" fill="white" fill-opacity="0.2"/>
<ellipse cx="1194.36" cy="183.098" rx="1" ry="1.102" fill="white" fill-opacity="0.2"/>
<ellipse cx="222.709" cy="707.934" rx="1" ry="1.102" fill="white" fill-opacity="0.2"/>
<ellipse cx="1096.24" cy="858.931" rx="1" ry="1.102" fill="white" fill-opacity="0.2"/>
<ellipse cx="889.912" cy="365.877" rx="1" ry="1.102" fill="white" fill-opacity="0.2"/>
<ellipse cx="750.434" cy="300.012" rx="1" ry="1.102" fill="white" fill-opacity="0.2"/>
<ellipse cx="505.426" cy="368.357" rx="1" ry="1.102" fill="white" fill-opacity="0.2"/>
<ellipse cx="1123.82" cy="794.853" rx="1" ry="1.102" fill="white" fill-opacity="0.2"/>
<ellipse cx="874.689" cy="147.141" rx="1" ry="1.102" fill="white" fill-opacity="0.2"/>
<ellipse cx="262.826" cy="227.853" rx="1" ry="1.102" fill="white" fill-opacity="0.2"/>
<ellipse cx="14.0977" cy="482.884" rx="1" ry="1.102" fill="white" fill-opacity="0.2"/>
<ellipse cx="92.4941" cy="858.684" rx="1" ry="1.102" fill="white" fill-opacity="0.2"/>
<ellipse cx="1375.47" cy="444.195" rx="1" ry="1.102" fill="white" fill-opacity="0.2"/>
<ellipse cx="688.744" cy="152.209" rx="1" ry="1.102" fill="white" fill-opacity="0.2"/>
<ellipse cx="985.307" cy="974.65" rx="1" ry="1.102" fill="white" fill-opacity="0.2"/>
<ellipse cx="1330.48" cy="350.113" rx="1" ry="1.102" fill="white" fill-opacity="0.2"/>
<ellipse cx="1128.5" cy="337.83" rx="1" ry="1.102" fill="white" fill-opacity="0.2"/>
<ellipse cx="661.611" cy="297.867" rx="1" ry="1.102" fill="white" fill-opacity="0.2"/>
<ellipse cx="1165.24" cy="890.386" rx="1" ry="1.102" fill="white" fill-opacity="0.2"/>
<ellipse cx="1030.21" cy="766.496" rx="1" ry="1.102" fill="white" fill-opacity="0.2"/>
<ellipse cx="552.287" cy="207.887" rx="1" ry="1.102" fill="white" fill-opacity="0.2"/>
<ellipse cx="1403.31" cy="245.779" rx="1" ry="1.102" fill="white" fill-opacity="0.2"/>
<ellipse cx="1341.15" cy="155.751" rx="1" ry="1.102" fill="white" fill-opacity="0.2"/>
<ellipse cx="1084.67" cy="216.697" rx="1" ry="1.102" fill="white" fill-opacity="0.2"/>
<ellipse cx="921.963" cy="856.294" rx="1" ry="1.102" fill="white" fill-opacity="0.2"/>
<ellipse cx="162.613" cy="496.615" rx="1" ry="1.102" fill="white" fill-opacity="0.2"/>
<ellipse cx="441.275" cy="810.58" rx="1" ry="1.102" fill="white" fill-opacity="0.2"/>
<ellipse cx="206.889" cy="548.297" rx="1" ry="1.102" fill="white" fill-opacity="0.2"/>
<ellipse cx="447.467" cy="186.133" rx="1" ry="1.102" fill="white" fill-opacity="0.2"/>
<ellipse cx="90.3438" cy="914.215" rx="1" ry="1.102" fill="white" fill-opacity="0.2"/>
<ellipse cx="800.359" cy="513.249" rx="1" ry="1.102" fill="white" fill-opacity="0.2"/>
<ellipse cx="1056.61" cy="970.954" rx="1" ry="1.102" fill="white" fill-opacity="0.2"/>
<ellipse cx="185.176" cy="494.301" rx="1" ry="1.102" fill="white" fill-opacity="0.2"/>
<ellipse cx="572.898" cy="662.289" rx="1" ry="1.102" fill="white" fill-opacity="0.2"/>
<ellipse cx="194.764" cy="293.721" rx="1" ry="1.102" fill="white" fill-opacity="0.2"/>
<ellipse cx="457.768" cy="502.766" rx="1" ry="1.102" fill="white" fill-opacity="0.2"/>
<ellipse cx="569.799" cy="329.294" rx="1" ry="1.102" fill="white" fill-opacity="0.2"/>
<ellipse cx="1360.19" cy="907.136" rx="1" ry="1.102" fill="white" fill-opacity="0.2"/>
<ellipse cx="473.969" cy="394.716" rx="1.5" ry="1.65323" fill="white" fill-opacity="0.2"/>
<ellipse cx="407.727" cy="374.612" rx="1.5" ry="1.65323" fill="white" fill-opacity="0.2"/>
<ellipse cx="1315.62" cy="942.92" rx="1.5" ry="1.65323" fill="white" fill-opacity="0.2"/>
<ellipse cx="1050.92" cy="419.979" rx="1.5" ry="1.65323" fill="white" fill-opacity="0.2"/>
<ellipse cx="1202.53" cy="129.952" rx="1.5" ry="1.65323" fill="white" fill-opacity="0.2"/>
<ellipse cx="441.734" cy="929.228" rx="1.5" ry="1.65323" fill="white" fill-opacity="0.2"/>
<ellipse cx="1342.85" cy="320.917" rx="1.5" ry="1.65323" fill="white" fill-opacity="0.2"/>
<ellipse cx="740.854" cy="378.149" rx="1.5" ry="1.65323" fill="white" fill-opacity="0.2"/>
<ellipse cx="454.555" cy="308.133" rx="1.5" ry="1.65323" fill="white" fill-opacity="0.2"/>
<ellipse cx="415.584" cy="388.502" rx="1.5" ry="1.65323" fill="white" fill-opacity="0.2"/>
<ellipse cx="216.754" cy="350.951" rx="1.5" ry="1.65323" fill="white" fill-opacity="0.2"/>
<ellipse cx="1322.53" cy="447.734" rx="1.5" ry="1.65323" fill="white" fill-opacity="0.2"/>
<ellipse cx="1201.1" cy="236.439" rx="1.5" ry="1.65323" fill="white" fill-opacity="0.2"/>
<ellipse cx="652.566" cy="43.4916" rx="1.5" ry="1.65323" fill="white" fill-opacity="0.2"/>
<ellipse cx="449.49" cy="465.443" rx="1.5" ry="1.65323" fill="white" fill-opacity="0.2"/>
<ellipse cx="1264.23" cy="711.743" rx="1.5" ry="1.65323" fill="white" fill-opacity="0.2"/>
<ellipse cx="1373.54" cy="952.146" rx="1.5" ry="1.65323" fill="white" fill-opacity="0.2"/>
<ellipse cx="478" cy="487.338" rx="1.5" ry="1.65323" fill="white" fill-opacity="0.2"/>
<ellipse cx="1200.92" cy="210.944" rx="1.5" ry="1.65323" fill="white" fill-opacity="0.2"/>
<ellipse cx="231.654" cy="255.392" rx="1.5" ry="1.65323" fill="white" fill-opacity="0.2"/>
<ellipse cx="953.926" cy="440.72" rx="1.5" ry="1.65323" fill="white" fill-opacity="0.2"/>
<ellipse cx="1216.05" cy="305.81" rx="1.5" ry="1.65323" fill="white" fill-opacity="0.2"/>
<ellipse cx="55.7461" cy="666.511" rx="1.5" ry="1.65323" fill="white" fill-opacity="0.2"/>
<ellipse cx="2.82031" cy="16.1814" rx="1.5" ry="1.65323" fill="white" fill-opacity="0.2"/>
<ellipse cx="995.73" cy="854.927" rx="1.5" ry="1.65323" fill="white" fill-opacity="0.2"/>
<ellipse cx="668.703" cy="149.764" rx="1.5" ry="1.65323" fill="white" fill-opacity="0.2"/>
<ellipse cx="1207.92" cy="580.298" rx="1.5" ry="1.65323" fill="white" fill-opacity="0.2"/>
<ellipse cx="1218.02" cy="907.926" rx="1.5" ry="1.65323" fill="white" fill-opacity="0.2"/>
<ellipse cx="1362.51" cy="760.735" rx="1.5" ry="1.65323" fill="white" fill-opacity="0.2"/>
<ellipse cx="401.002" cy="833.57" rx="1.5" ry="1.65323" fill="white" fill-opacity="0.2"/>
<ellipse cx="1002.95" cy="635.53" rx="1.5" ry="1.65323" fill="white" fill-opacity="0.2"/>
<ellipse cx="477.791" cy="927.393" rx="1.5" ry="1.65323" fill="white" fill-opacity="0.2"/>
<ellipse cx="1015.38" cy="87.1729" rx="1.5" ry="1.65323" fill="white" fill-opacity="0.2"/>
<ellipse cx="12.5586" cy="744.924" rx="1.5" ry="1.65323" fill="white" fill-opacity="0.2"/>
<ellipse cx="1285.5" cy="789.761" rx="1.5" ry="1.65323" fill="white" fill-opacity="0.2"/>
<ellipse cx="1427.12" cy="888.326" rx="1.5" ry="1.65323" fill="white" fill-opacity="0.2"/>
<ellipse cx="1084.23" cy="915.494" rx="1.5" ry="1.65323" fill="white" fill-opacity="0.2"/>
<ellipse cx="1137.55" cy="1.64893" rx="0.5" ry="0.550921" fill="white" fill-opacity="0.2"/>
<ellipse cx="556.961" cy="547.373" rx="0.5" ry="0.550921" fill="white" fill-opacity="0.2"/>
<ellipse cx="577.227" cy="286.782" rx="0.5" ry="0.550921" fill="white" fill-opacity="0.2"/>
<ellipse cx="35.5078" cy="399.948" rx="0.5" ry="0.550921" fill="white" fill-opacity="0.2"/>
<ellipse cx="1184.54" cy="398.154" rx="0.5" ry="0.550921" fill="white" fill-opacity="0.2"/>
<ellipse cx="273.387" cy="127.945" rx="0.5" ry="0.550921" fill="white" fill-opacity="0.2"/>
<ellipse cx="465.854" cy="654.78" rx="0.5" ry="0.550921" fill="white" fill-opacity="0.2"/>
<ellipse cx="201.777" cy="826.452" rx="0.5" ry="0.550921" fill="white" fill-opacity="0.2"/>
<ellipse cx="1296.54" cy="663.42" rx="0.5" ry="0.550921" fill="white" fill-opacity="0.2"/>
<ellipse cx="654.182" cy="579.844" rx="0.5" ry="0.550921" fill="white" fill-opacity="0.2"/>
<ellipse cx="976.799" cy="899.525" rx="0.5" ry="0.550921" fill="white" fill-opacity="0.2"/>
<ellipse cx="1184.78" cy="984.974" rx="0.5" ry="0.550921" fill="white" fill-opacity="0.2"/>
<ellipse cx="1110.24" cy="855.474" rx="0.5" ry="0.550921" fill="white" fill-opacity="0.2"/>
<ellipse cx="97.5215" cy="641.546" rx="0.5" ry="0.550921" fill="white" fill-opacity="0.2"/>
<ellipse cx="110.465" cy="99.8301" rx="0.5" ry="0.550921" fill="white" fill-opacity="0.2"/>
<ellipse cx="1345.84" cy="558.988" rx="0.5" ry="0.550921" fill="white" fill-opacity="0.2"/>
<ellipse cx="256.496" cy="285.63" rx="0.5" ry="0.550921" fill="white" fill-opacity="0.2"/>
<ellipse cx="309.102" cy="356.677" rx="0.5" ry="0.550921" fill="white" fill-opacity="0.2"/>
<ellipse cx="259.887" cy="399.808" rx="0.5" ry="0.550921" fill="white" fill-opacity="0.2"/>
<ellipse cx="795.047" cy="849.308" rx="0.5" ry="0.550921" fill="white" fill-opacity="0.2"/>
<ellipse cx="945.803" cy="845.77" rx="0.5" ry="0.550921" fill="white" fill-opacity="0.2"/>
<ellipse cx="761.174" cy="487.732" rx="0.5" ry="0.550921" fill="white" fill-opacity="0.2"/>
<ellipse cx="1121.95" cy="562.347" rx="0.5" ry="0.550921" fill="white" fill-opacity="0.2"/>
<ellipse cx="1.37109" cy="479.814" rx="0.5" ry="0.550921" fill="white" fill-opacity="0.2"/>
<ellipse cx="473.154" cy="731.418" rx="0.5" ry="0.550921" fill="white" fill-opacity="0.2"/>
<ellipse cx="1168.95" cy="153.471" rx="0.5" ry="0.550921" fill="white" fill-opacity="0.2"/>
<ellipse cx="975.773" cy="272.979" rx="0.5" ry="0.550921" fill="white" fill-opacity="0.2"/>
<ellipse cx="114.207" cy="61.2125" rx="0.5" ry="0.550921" fill="white" fill-opacity="0.2"/>
<ellipse cx="40.6172" cy="92.5531" rx="0.5" ry="0.550921" fill="white" fill-opacity="0.2"/>
<ellipse cx="1428.53" cy="150.754" rx="0.5" ry="0.550921" fill="white" fill-opacity="0.2"/>
<ellipse cx="682.461" cy="265.216" rx="0.5" ry="0.550921" fill="white" fill-opacity="0.2"/>
<ellipse cx="700.41" cy="858.751" rx="0.5" ry="0.550921" fill="white" fill-opacity="0.2"/>
<ellipse cx="856.443" cy="372.777" rx="0.5" ry="0.550921" fill="white" fill-opacity="0.2"/>
<ellipse cx="556.742" cy="113.185" rx="0.5" ry="0.550921" fill="white" fill-opacity="0.2"/>
<ellipse cx="169.041" cy="680.458" rx="0.5" ry="0.550921" fill="white" fill-opacity="0.2"/>
<ellipse cx="1324.04" cy="552.715" rx="0.5" ry="0.550921" fill="white" fill-opacity="0.2"/>
<ellipse cx="342.701" cy="585.842" rx="0.5" ry="0.550921" fill="white" fill-opacity="0.2"/>
<ellipse cx="336.777" cy="37.8142" rx="0.5" ry="0.550921" fill="white" fill-opacity="0.2"/>
<ellipse cx="1341.17" cy="541.81" rx="0.5" ry="0.550921" fill="white" fill-opacity="0.2"/>
<ellipse cx="1268.32" cy="906.234" rx="0.5" ry="0.550921" fill="white" fill-opacity="0.2"/>
<ellipse cx="922.809" cy="434.022" rx="0.5" ry="0.550921" fill="white" fill-opacity="0.2"/>
<ellipse cx="897.18" cy="54.6762" rx="0.5" ry="0.550921" fill="white" fill-opacity="0.2"/>
<ellipse cx="129.816" cy="89.6724" rx="0.5" ry="0.550921" fill="white" fill-opacity="0.2"/>
<ellipse cx="301.887" cy="712.04" rx="0.5" ry="0.550921" fill="white" fill-opacity="0.2"/>
<ellipse cx="875.461" cy="985.6" rx="0.5" ry="0.550921" fill="white" fill-opacity="0.2"/>
<ellipse cx="1297.51" cy="973.486" rx="0.5" ry="0.550921" fill="white" fill-opacity="0.2"/>
<ellipse cx="841.209" cy="149.669" rx="0.5" ry="0.550921" fill="white" fill-opacity="0.2"/>
<ellipse cx="574.189" cy="418.131" rx="0.5" ry="0.550921" fill="white" fill-opacity="0.2"/>
<ellipse cx="516.584" cy="119.217" rx="0.5" ry="0.550921" fill="white" fill-opacity="0.2"/>
<ellipse cx="74.2363" cy="336.646" rx="0.5" ry="0.550921" fill="white" fill-opacity="0.2"/>
<ellipse cx="986.439" cy="223.278" rx="0.5" ry="0.550921" fill="white" fill-opacity="0.2"/>
<ellipse cx="853.234" cy="209.273" rx="0.5" ry="0.550921" fill="white" fill-opacity="0.2"/>
<ellipse cx="1091.15" cy="668.074" rx="0.5" ry="0.550921" fill="white" fill-opacity="0.2"/>
<ellipse cx="567.816" cy="32.744" rx="0.5" ry="0.550921" fill="white" fill-opacity="0.2"/>
<ellipse cx="169.33" cy="938.868" rx="0.5" ry="0.550921" fill="white" fill-opacity="0.2"/>
<ellipse cx="369.746" cy="724.133" rx="0.5" ry="0.550921" fill="white" fill-opacity="0.2"/>
<ellipse cx="377.805" cy="448.908" rx="0.5" ry="0.550921" fill="white" fill-opacity="0.2"/>
<ellipse cx="820.834" cy="717.327" rx="0.5" ry="0.550921" fill="white" fill-opacity="0.2"/>
<ellipse cx="195.889" cy="743.023" rx="0.5" ry="0.550921" fill="white" fill-opacity="0.2"/>
<ellipse cx="808.252" cy="485" rx="0.5" ry="0.550921" fill="white" fill-opacity="0.2"/>
<ellipse cx="608.658" cy="192.917" rx="0.5" ry="0.550921" fill="white" fill-opacity="0.2"/>
<ellipse cx="198.201" cy="204.709" rx="0.5" ry="0.550921" fill="white" fill-opacity="0.2"/>
<ellipse cx="35.5039" cy="727.59" rx="0.5" ry="0.550921" fill="white" fill-opacity="0.2"/>
<ellipse cx="1022.06" cy="764.1" rx="0.5" ry="0.550921" fill="white" fill-opacity="0.2"/>
<ellipse cx="171.953" cy="901.446" rx="0.5" ry="0.550921" fill="white" fill-opacity="0.2"/>
<ellipse cx="991.826" cy="128.916" rx="0.5" ry="0.550921" fill="white" fill-opacity="0.2"/>
<ellipse cx="806.057" cy="699.652" rx="0.5" ry="0.550921" fill="white" fill-opacity="0.2"/>
<ellipse cx="329.334" cy="265.179" rx="0.5" ry="0.550921" fill="white" fill-opacity="0.2"/>
<ellipse cx="1079.16" cy="895.271" rx="0.5" ry="0.550921" fill="white" fill-opacity="0.2"/>
<ellipse cx="132.521" cy="603.83" rx="0.5" ry="0.550921" fill="white" fill-opacity="0.2"/>
<ellipse cx="49.5742" cy="772.97" rx="0.5" ry="0.550921" fill="white" fill-opacity="0.2"/>
<ellipse cx="1322.14" cy="967.113" rx="0.5" ry="0.550921" fill="white" fill-opacity="0.2"/>
<ellipse cx="1394.3" cy="819.98" rx="0.5" ry="0.550921" fill="white" fill-opacity="0.2"/>
<ellipse cx="624.955" cy="123.398" rx="0.5" ry="0.550921" fill="white" fill-opacity="0.2"/>
<ellipse cx="6.41992" cy="338.029" rx="0.5" ry="0.550921" fill="white" fill-opacity="0.2"/>
<ellipse cx="514.807" cy="776.441" rx="0.5" ry="0.550921" fill="white" fill-opacity="0.2"/>
<ellipse cx="631.797" cy="204.227" rx="0.5" ry="0.550921" fill="white" fill-opacity="0.2"/>
<ellipse cx="881.053" cy="678.223" rx="0.5" ry="0.550921" fill="white" fill-opacity="0.2"/>
<ellipse cx="64.9785" cy="248.541" rx="0.5" ry="0.550921" fill="white" fill-opacity="0.2"/>
<ellipse cx="1418.77" cy="156.433" rx="0.5" ry="0.550921" fill="white" fill-opacity="0.2"/>
<ellipse cx="89.8203" cy="329.122" rx="0.5" ry="0.550921" fill="white" fill-opacity="0.2"/>
<ellipse cx="520.09" cy="117.641" rx="0.5" ry="0.550921" fill="white" fill-opacity="0.2"/>
<ellipse cx="1225.08" cy="42.5938" rx="0.5" ry="0.550921" fill="white" fill-opacity="0.2"/>
<ellipse cx="945.576" cy="815.465" rx="0.5" ry="0.550921" fill="white" fill-opacity="0.2"/>
<ellipse cx="160.664" cy="11.9185" rx="0.5" ry="0.550921" fill="white" fill-opacity="0.2"/>
<ellipse cx="1322.38" cy="492.199" rx="0.5" ry="0.550921" fill="white" fill-opacity="0.2"/>
<ellipse cx="1164.34" cy="775.989" rx="0.5" ry="0.550921" fill="white" fill-opacity="0.2"/>
<ellipse cx="859.66" cy="448.662" rx="0.5" ry="0.550921" fill="white" fill-opacity="0.2"/>
<ellipse cx="1004.63" cy="472.388" rx="0.5" ry="0.550921" fill="white" fill-opacity="0.2"/>
<ellipse cx="6.58984" cy="348.938" rx="0.5" ry="0.550921" fill="white" fill-opacity="0.2"/>
<ellipse cx="411.039" cy="366.809" rx="0.5" ry="0.550921" fill="white" fill-opacity="0.2"/>
<ellipse cx="1329.98" cy="768.753" rx="0.5" ry="0.550921" fill="white" fill-opacity="0.2"/>
<ellipse cx="864.902" cy="127.973" rx="0.5" ry="0.550921" fill="white" fill-opacity="0.2"/>
<ellipse cx="869.943" cy="776.658" rx="0.5" ry="0.550921" fill="white" fill-opacity="0.2"/>
<ellipse cx="1388.97" cy="76.6621" rx="0.5" ry="0.550921" fill="white" fill-opacity="0.2"/>
<ellipse cx="23.8223" cy="152.504" rx="0.5" ry="0.550921" fill="white" fill-opacity="0.2"/>
<ellipse cx="555.686" cy="314.6" rx="0.5" ry="0.550921" fill="white" fill-opacity="0.2"/>
<ellipse cx="425.994" cy="875.675" rx="0.5" ry="0.550921" fill="white" fill-opacity="0.2"/>
<ellipse cx="411.592" cy="423.729" rx="0.5" ry="0.550921" fill="white" fill-opacity="0.2"/>
<ellipse cx="329.66" cy="171.973" rx="0.5" ry="0.550921" fill="white" fill-opacity="0.2"/>
<ellipse cx="737.979" cy="141.806" rx="0.5" ry="0.550921" fill="white" fill-opacity="0.2"/>
<ellipse cx="531.037" cy="95.0182" rx="0.5" ry="0.550921" fill="white" fill-opacity="0.2"/>
<ellipse cx="957.617" cy="95.522" rx="0.5" ry="0.550921" fill="white" fill-opacity="0.2"/>
<ellipse cx="331.129" cy="59.051" rx="0.5" ry="0.550921" fill="white" fill-opacity="0.2"/>
<ellipse cx="833.432" cy="273.612" rx="0.5" ry="0.550921" fill="white" fill-opacity="0.2"/>
<ellipse cx="129.236" cy="983.286" rx="0.5" ry="0.550921" fill="white" fill-opacity="0.2"/>
<ellipse cx="1343.43" cy="779.225" rx="0.5" ry="0.550921" fill="white" fill-opacity="0.2"/>
<ellipse cx="206.09" cy="615.536" rx="0.5" ry="0.550921" fill="white" fill-opacity="0.2"/>
<ellipse cx="1293.5" cy="0.690863" rx="0.5" ry="0.550921" fill="white" fill-opacity="0.2"/>
<ellipse cx="1220.45" cy="509.791" rx="0.5" ry="0.550921" fill="white" fill-opacity="0.2"/>
<ellipse cx="321.898" cy="317.031" rx="0.5" ry="0.550921" fill="white" fill-opacity="0.2"/>
<ellipse cx="840.795" cy="765.433" rx="0.5" ry="0.550921" fill="white" fill-opacity="0.2"/>
<ellipse cx="276.334" cy="942.856" rx="0.5" ry="0.550921" fill="white" fill-opacity="0.2"/>
<ellipse cx="1226.26" cy="625.512" rx="0.5" ry="0.550921" fill="white" fill-opacity="0.2"/>
<ellipse cx="681.244" cy="401.086" rx="0.5" ry="0.550921" fill="white" fill-opacity="0.2"/>
<ellipse cx="365.592" cy="145.027" rx="0.5" ry="0.550921" fill="white" fill-opacity="0.2"/>
<ellipse cx="588.656" cy="151.256" rx="0.5" ry="0.550921" fill="white" fill-opacity="0.2"/>
<ellipse cx="489.945" cy="126.899" rx="0.5" ry="0.550921" fill="white" fill-opacity="0.2"/>
<ellipse cx="1364.03" cy="702.272" rx="0.5" ry="0.550921" fill="white" fill-opacity="0.2"/>
<ellipse cx="884.611" cy="216.658" rx="0.5" ry="0.550921" fill="white" fill-opacity="0.2"/>
<ellipse cx="555.041" cy="13.8088" rx="0.5" ry="0.550921" fill="white" fill-opacity="0.2"/>
<ellipse cx="442.479" cy="39.0307" rx="0.5" ry="0.550921" fill="white" fill-opacity="0.2"/>
<ellipse cx="827.949" cy="86.5873" rx="0.5" ry="0.550921" fill="white" fill-opacity="0.2"/>
<ellipse cx="700.029" cy="805.174" rx="0.5" ry="0.550921" fill="white" fill-opacity="0.2"/>
<ellipse cx="866.564" cy="248.832" rx="0.5" ry="0.550921" fill="white" fill-opacity="0.2"/>
<ellipse cx="1022.72" cy="450.742" rx="0.5" ry="0.550921" fill="white" fill-opacity="0.2"/>
<ellipse cx="1247.96" cy="179.177" rx="0.5" ry="0.550921" fill="white" fill-opacity="0.2"/>
<ellipse cx="336.896" cy="592.893" rx="0.5" ry="0.550921" fill="white" fill-opacity="0.2"/>
<ellipse cx="240.668" cy="10.7775" rx="0.5" ry="0.550921" fill="white" fill-opacity="0.2"/>
<ellipse cx="459.35" cy="172.574" rx="0.5" ry="0.550921" fill="white" fill-opacity="0.2"/>
<ellipse cx="1225.71" cy="926.278" rx="0.5" ry="0.550921" fill="white" fill-opacity="0.2"/>
<ellipse cx="811.881" cy="212.705" rx="0.5" ry="0.550921" fill="white" fill-opacity="0.2"/>
<ellipse cx="521.93" cy="226.57" rx="0.5" ry="0.550921" fill="white" fill-opacity="0.2"/>
<ellipse cx="1321.42" cy="448.159" rx="0.5" ry="0.550921" fill="white" fill-opacity="0.2"/>
<ellipse cx="1121.8" cy="444.262" rx="0.5" ry="0.550921" fill="white" fill-opacity="0.2"/>
<ellipse cx="998.646" cy="888.203" rx="0.5" ry="0.550921" fill="white" fill-opacity="0.2"/>
<ellipse cx="378.824" cy="766.339" rx="0.5" ry="0.550921" fill="white" fill-opacity="0.2"/>
<ellipse cx="1355.97" cy="840.954" rx="0.5" ry="0.550921" fill="white" fill-opacity="0.2"/>
<ellipse cx="54.4336" cy="226.829" rx="0.5" ry="0.550921" fill="white" fill-opacity="0.2"/>
<ellipse cx="666.344" cy="319.158" rx="0.5" ry="0.550921" fill="white" fill-opacity="0.2"/>
<ellipse cx="811.174" cy="721.582" rx="0.5" ry="0.550921" fill="white" fill-opacity="0.2"/>
<ellipse cx="425.043" cy="68.3367" rx="0.5" ry="0.550921" fill="white" fill-opacity="0.2"/>
<ellipse cx="797.672" cy="826.545" rx="0.5" ry="0.550921" fill="white" fill-opacity="0.2"/>
<ellipse cx="1419.18" cy="130.691" rx="0.5" ry="0.550921" fill="white" fill-opacity="0.2"/>
<ellipse cx="580.42" cy="592.686" rx="0.5" ry="0.550921" fill="white" fill-opacity="0.2"/>
<ellipse cx="326.52" cy="462.097" rx="0.5" ry="0.550921" fill="white" fill-opacity="0.2"/>
<ellipse cx="402.545" cy="42.2579" rx="0.5" ry="0.550921" fill="white" fill-opacity="0.2"/>
<ellipse cx="449.631" cy="169.808" rx="0.5" ry="0.550921" fill="white" fill-opacity="0.2"/>
<ellipse cx="1239.48" cy="643.933" rx="0.5" ry="0.550921" fill="white" fill-opacity="0.2"/>
<ellipse cx="941.924" cy="509.453" rx="0.5" ry="0.550921" fill="white" fill-opacity="0.2"/>
<ellipse cx="90.7891" cy="684.785" rx="0.5" ry="0.550921" fill="white" fill-opacity="0.2"/>
<ellipse cx="266.873" cy="939.964" rx="0.5" ry="0.550921" fill="white" fill-opacity="0.2"/>
<ellipse cx="828.768" cy="976.293" rx="0.5" ry="0.550921" fill="white" fill-opacity="0.2"/>
<ellipse cx="391.107" cy="568.769" rx="0.5" ry="0.550921" fill="white" fill-opacity="0.2"/>
<ellipse cx="559.506" cy="155.234" rx="0.5" ry="0.550921" fill="white" fill-opacity="0.2"/>
<ellipse cx="88.6719" cy="923.466" rx="0.5" ry="0.550921" fill="white" fill-opacity="0.2"/>
<ellipse cx="1425.64" cy="606.343" rx="0.5" ry="0.550921" fill="white" fill-opacity="0.2"/>
<ellipse cx="1270.03" cy="283.26" rx="0.5" ry="0.550921" fill="white" fill-opacity="0.2"/>
<ellipse cx="669.041" cy="71.7405" rx="0.5" ry="0.550921" fill="white" fill-opacity="0.2"/>
<ellipse cx="219.535" cy="818.133" rx="0.5" ry="0.550921" fill="white" fill-opacity="0.2"/>
<ellipse cx="853.447" cy="308.111" rx="0.5" ry="0.550921" fill="white" fill-opacity="0.2"/>
<ellipse cx="1397.72" cy="503.429" rx="0.5" ry="0.550921" fill="white" fill-opacity="0.2"/>
<ellipse cx="1432.31" cy="435.37" rx="0.5" ry="0.550921" fill="white" fill-opacity="0.2"/>
<ellipse cx="1105.9" cy="106.702" rx="0.5" ry="0.550921" fill="white" fill-opacity="0.2"/>
<ellipse cx="1285.7" cy="264.163" rx="0.5" ry="0.550921" fill="white" fill-opacity="0.2"/>
<ellipse cx="291.449" cy="789.126" rx="0.5" ry="0.550921" fill="white" fill-opacity="0.2"/>
<ellipse cx="110.684" cy="286.106" rx="0.5" ry="0.550921" fill="white" fill-opacity="0.2"/>
<ellipse cx="692.316" cy="471.865" rx="0.5" ry="0.550921" fill="white" fill-opacity="0.2"/>
<ellipse cx="1301.92" cy="194.709" rx="0.5" ry="0.550921" fill="white" fill-opacity="0.2"/>
<ellipse cx="1147.08" cy="552.855" rx="0.5" ry="0.550921" fill="white" fill-opacity="0.2"/>
<ellipse cx="556.812" cy="922.831" rx="0.5" ry="0.550921" fill="white" fill-opacity="0.2"/>
<ellipse cx="1240.25" cy="730.824" rx="0.5" ry="0.550921" fill="white" fill-opacity="0.2"/>
<ellipse cx="1032.45" cy="876.045" rx="0.5" ry="0.550921" fill="white" fill-opacity="0.2"/>
<ellipse cx="273.074" cy="730.198" rx="0.5" ry="0.550921" fill="white" fill-opacity="0.2"/>
<ellipse cx="442.574" cy="403.278" rx="0.5" ry="0.550921" fill="white" fill-opacity="0.2"/>
<ellipse cx="431.799" cy="218.494" rx="0.5" ry="0.550921" fill="white" fill-opacity="0.2"/>
<ellipse cx="831.664" cy="547.612" rx="0.5" ry="0.550921" fill="white" fill-opacity="0.2"/>
<ellipse cx="1156.49" cy="574.718" rx="0.5" ry="0.550921" fill="white" fill-opacity="0.2"/>
<ellipse cx="281.738" cy="893.473" rx="0.5" ry="0.550921" fill="white" fill-opacity="0.2"/>
<ellipse cx="698.883" cy="963.494" rx="0.5" ry="0.550921" fill="white" fill-opacity="0.2"/>
<ellipse cx="327.629" cy="397.379" rx="0.5" ry="0.550921" fill="white" fill-opacity="0.2"/>
<ellipse cx="1138.94" cy="269.946" rx="0.5" ry="0.550921" fill="white" fill-opacity="0.2"/>
<ellipse cx="1004.85" cy="845.323" rx="0.5" ry="0.550921" fill="white" fill-opacity="0.2"/>
<ellipse cx="1105.99" cy="701.514" rx="0.5" ry="0.550921" fill="white" fill-opacity="0.2"/>
<ellipse cx="74.7266" cy="651.087" rx="0.5" ry="0.550921" fill="white" fill-opacity="0.2"/>
<ellipse cx="532.896" cy="611.049" rx="0.5" ry="0.550921" fill="white" fill-opacity="0.2"/>
<ellipse cx="574.697" cy="293.757" rx="0.5" ry="0.550921" fill="white" fill-opacity="0.2"/>
<ellipse cx="20.332" cy="17.1933" rx="0.5" ry="0.550921" fill="white" fill-opacity="0.2"/>
<ellipse cx="615.215" cy="769.27" rx="0.5" ry="0.550921" fill="white" fill-opacity="0.2"/>
<ellipse cx="327.66" cy="472.898" rx="0.5" ry="0.550921" fill="white" fill-opacity="0.2"/>
<ellipse cx="312.539" cy="466.259" rx="0.5" ry="0.550921" fill="white" fill-opacity="0.2"/>
<ellipse cx="865.545" cy="364.947" rx="0.5" ry="0.550921" fill="white" fill-opacity="0.2"/>
<ellipse cx="110.012" cy="82.1651" rx="0.5" ry="0.550921" fill="white" fill-opacity="0.2"/>
<ellipse cx="989.057" cy="430.188" rx="0.5" ry="0.550921" fill="white" fill-opacity="0.2"/>
<ellipse cx="984.748" cy="285.378" rx="0.5" ry="0.550921" fill="white" fill-opacity="0.2"/>
<ellipse cx="1377.48" cy="149.699" rx="0.5" ry="0.550921" fill="white" fill-opacity="0.2"/>
<ellipse cx="160.807" cy="847.669" rx="0.5" ry="0.550921" fill="white" fill-opacity="0.2"/>
<ellipse cx="605.85" cy="141.845" rx="0.5" ry="0.550921" fill="white" fill-opacity="0.2"/>
<ellipse cx="1235.19" cy="25.2475" rx="0.5" ry="0.550921" fill="white" fill-opacity="0.2"/>
<ellipse cx="1168.94" cy="43.2655" rx="0.5" ry="0.550921" fill="white" fill-opacity="0.2"/>
<ellipse cx="902.164" cy="189.221" rx="0.5" ry="0.550921" fill="white" fill-opacity="0.2"/>
<ellipse cx="137.633" cy="231.048" rx="0.5" ry="0.550921" fill="white" fill-opacity="0.2"/>
<ellipse cx="885.68" cy="318.01" rx="0.5" ry="0.550921" fill="white" fill-opacity="0.2"/>
<ellipse cx="1403.27" cy="844.836" rx="0.5" ry="0.550921" fill="white" fill-opacity="0.2"/>
<ellipse cx="79.0059" cy="630.24" rx="0.5" ry="0.550921" fill="white" fill-opacity="0.2"/>
<ellipse cx="870.973" cy="704.511" rx="0.5" ry="0.550921" fill="white" fill-opacity="0.2"/>
<ellipse cx="1244.48" cy="976.911" rx="0.5" ry="0.550921" fill="white" fill-opacity="0.2"/>
<ellipse cx="1350.76" cy="937.874" rx="0.5" ry="0.550921" fill="white" fill-opacity="0.2"/>
<ellipse cx="427.713" cy="665.254" rx="0.5" ry="0.550921" fill="white" fill-opacity="0.2"/>
<ellipse cx="447.801" cy="679.175" rx="0.5" ry="0.550921" fill="white" fill-opacity="0.2"/>
<ellipse cx="747.146" cy="482.666" rx="0.5" ry="0.550921" fill="white" fill-opacity="0.2"/>
<ellipse cx="801.182" cy="179.743" rx="0.5" ry="0.550921" fill="white" fill-opacity="0.2"/>
<ellipse cx="1013.4" cy="804.774" rx="0.5" ry="0.550921" fill="white" fill-opacity="0.2"/>
<ellipse cx="972.41" cy="424.093" rx="0.5" ry="0.550921" fill="white" fill-opacity="0.2"/>
<ellipse cx="1389.01" cy="590.499" rx="0.5" ry="0.550921" fill="white" fill-opacity="0.2"/>
<ellipse cx="1254.94" cy="656.323" rx="0.5" ry="0.550921" fill="white" fill-opacity="0.2"/>
<ellipse cx="66.6211" cy="496.895" rx="0.5" ry="0.550921" fill="white" fill-opacity="0.2"/>
<ellipse cx="1245.98" cy="587.668" rx="0.5" ry="0.550921" fill="white" fill-opacity="0.2"/>
<ellipse cx="898.699" cy="266.809" rx="0.5" ry="0.550921" fill="white" fill-opacity="0.2"/>
<ellipse cx="1131.53" cy="782.321" rx="0.5" ry="0.550921" fill="white" fill-opacity="0.2"/>
<ellipse cx="651.77" cy="749.759" rx="0.5" ry="0.550921" fill="white" fill-opacity="0.2"/>
<ellipse cx="982.422" cy="78.3393" rx="0.5" ry="0.550921" fill="white" fill-opacity="0.2"/>
<ellipse cx="542.297" cy="880.175" rx="0.5" ry="0.550921" fill="white" fill-opacity="0.2"/>
<ellipse cx="67.1973" cy="763.136" rx="0.5" ry="0.550921" fill="white" fill-opacity="0.2"/>
<ellipse cx="342.996" cy="904.154" rx="0.5" ry="0.550921" fill="white" fill-opacity="0.2"/>
<ellipse cx="707.982" cy="121.157" rx="0.5" ry="0.550921" fill="white" fill-opacity="0.2"/>
<ellipse cx="264.398" cy="194.198" rx="0.5" ry="0.550921" fill="white" fill-opacity="0.2"/>
<ellipse cx="585.822" cy="770.187" rx="0.5" ry="0.550921" fill="white" fill-opacity="0.2"/>
<ellipse cx="1063.12" cy="248.849" rx="0.5" ry="0.550921" fill="white" fill-opacity="0.2"/>
<ellipse cx="1296.98" cy="529.626" rx="0.5" ry="0.550921" fill="white" fill-opacity="0.2"/>
<ellipse cx="1243.1" cy="987.583" rx="0.5" ry="0.550921" fill="white" fill-opacity="0.2"/>
<ellipse cx="350.201" cy="507.638" rx="0.5" ry="0.550921" fill="white" fill-opacity="0.2"/>
<ellipse cx="82.1582" cy="297.887" rx="0.5" ry="0.550921" fill="white" fill-opacity="0.2"/>
<ellipse cx="1430.54" cy="109.402" rx="0.5" ry="0.550921" fill="white" fill-opacity="0.2"/>
<ellipse cx="295.277" cy="248.543" rx="0.5" ry="0.550921" fill="white" fill-opacity="0.2"/>
<ellipse cx="981.041" cy="140.766" rx="0.5" ry="0.550921" fill="white" fill-opacity="0.2"/>
<ellipse cx="1160.86" cy="372.476" rx="0.5" ry="0.550921" fill="white" fill-opacity="0.2"/>
<ellipse cx="1332.94" cy="298.231" rx="0.5" ry="0.550921" fill="white" fill-opacity="0.2"/>
<ellipse cx="1162.03" cy="495.136" rx="0.5" ry="0.550921" fill="white" fill-opacity="0.2"/>
<ellipse cx="1324.97" cy="866.964" rx="0.5" ry="0.550921" fill="white" fill-opacity="0.2"/>
<ellipse cx="559.473" cy="816.262" rx="0.5" ry="0.550921" fill="white" fill-opacity="0.2"/>
<ellipse cx="97.5625" cy="982.873" rx="0.5" ry="0.550921" fill="white" fill-opacity="0.2"/>
<ellipse cx="1404.47" cy="166.694" rx="0.5" ry="0.550921" fill="white" fill-opacity="0.2"/>
<ellipse cx="1167.4" cy="689.229" rx="0.5" ry="0.550921" fill="white" fill-opacity="0.2"/>
<ellipse cx="641.146" cy="303.155" rx="0.5" ry="0.550921" fill="white" fill-opacity="0.2"/>
<ellipse cx="470.582" cy="685.875" rx="0.5" ry="0.550921" fill="white" fill-opacity="0.2"/>
<ellipse cx="1241.92" cy="361.982" rx="0.5" ry="0.550921" fill="white" fill-opacity="0.2"/>
<ellipse cx="1269.48" cy="154.599" rx="0.5" ry="0.550921" fill="white" fill-opacity="0.2"/>
<ellipse cx="250.164" cy="593.461" rx="0.5" ry="0.550921" fill="white" fill-opacity="0.2"/>
<ellipse cx="1362.56" cy="263.928" rx="0.5" ry="0.550921" fill="white" fill-opacity="0.2"/>
<ellipse cx="976.07" cy="560.052" rx="0.5" ry="0.550921" fill="white" fill-opacity="0.2"/>
<ellipse cx="1292.39" cy="948.41" rx="0.5" ry="0.550921" fill="white" fill-opacity="0.2"/>
<ellipse cx="1071.87" cy="377.979" rx="0.5" ry="0.550921" fill="white" fill-opacity="0.2"/>
<ellipse cx="1438.85" cy="785.55" rx="0.5" ry="0.550921" fill="white" fill-opacity="0.2"/>
<ellipse cx="1165.44" cy="825.152" rx="0.5" ry="0.550921" fill="white" fill-opacity="0.2"/>
<ellipse cx="1379.25" cy="597.285" rx="0.5" ry="0.550921" fill="white" fill-opacity="0.2"/>
<ellipse cx="1438.04" cy="187.656" rx="0.5" ry="0.550921" fill="white" fill-opacity="0.2"/>
<ellipse cx="1401.88" cy="708.647" rx="0.5" ry="0.550921" fill="white" fill-opacity="0.2"/>
<ellipse cx="1377.67" cy="248.937" rx="0.5" ry="0.550921" fill="white" fill-opacity="0.2"/>
<ellipse cx="891.439" cy="151.802" rx="0.5" ry="0.550921" fill="white" fill-opacity="0.2"/>
<ellipse cx="1356.98" cy="162.97" rx="0.5" ry="0.550921" fill="white" fill-opacity="0.2"/>
<ellipse cx="1241.05" cy="836.175" rx="0.5" ry="0.550921" fill="white" fill-opacity="0.2"/>
<ellipse cx="1270.04" cy="102.312" rx="0.5" ry="0.550921" fill="white" fill-opacity="0.2"/>
<ellipse cx="1420.36" cy="874.738" rx="0.5" ry="0.550921" fill="white" fill-opacity="0.2"/>
<ellipse cx="558.863" cy="297.923" rx="0.5" ry="0.550921" fill="white" fill-opacity="0.2"/>
<ellipse cx="753.461" cy="163.344" rx="0.5" ry="0.550921" fill="white" fill-opacity="0.2"/>
<ellipse cx="445.398" cy="542.122" rx="0.5" ry="0.550921" fill="white" fill-opacity="0.2"/>
<ellipse cx="1407.69" cy="878.013" rx="0.5" ry="0.550921" fill="white" fill-opacity="0.2"/>
<ellipse cx="682.359" cy="171.233" rx="0.5" ry="0.550921" fill="white" fill-opacity="0.2"/>
<ellipse cx="0.5" cy="946.092" rx="0.5" ry="0.550921" fill="white" fill-opacity="0.2"/>
<ellipse cx="877.668" cy="65.8349" rx="0.5" ry="0.550921" fill="white" fill-opacity="0.2"/>
<ellipse cx="175.656" cy="687.778" rx="0.5" ry="0.550921" fill="white" fill-opacity="0.2"/>
<ellipse cx="895.266" cy="720.062" rx="0.5" ry="0.550921" fill="white" fill-opacity="0.2"/>
<ellipse cx="725.689" cy="914.674" rx="0.5" ry="0.550921" fill="white" fill-opacity="0.2"/>
<path d="M1218.91 140.665L1219.78 142.318H1218.05L1218.91 140.665Z" fill="white" fill-opacity="0.2"/>
<path d="M714.537 800.218L715.403 801.871H713.671L714.537 800.218Z" fill="white" fill-opacity="0.2"/>
<path d="M1350.23 15.4927L1351.09 17.1457H1349.36L1350.23 15.4927Z" fill="white" fill-opacity="0.2"/>
<path d="M654.572 635.261L655.438 636.914H653.706L654.572 635.261Z" fill="white" fill-opacity="0.2"/>
<path d="M1066.15 854.072L1067.02 855.725H1065.28L1066.15 854.072Z" fill="white" fill-opacity="0.2"/>
<path d="M1140.41 471.211L1141.27 472.864H1139.54L1140.41 471.211Z" fill="white" fill-opacity="0.2"/>
<path d="M252.99 863.373L253.856 865.026H252.124L252.99 863.373Z" fill="white" fill-opacity="0.2"/>
<path d="M623.725 573.627L624.591 575.28H622.859L623.725 573.627Z" fill="white" fill-opacity="0.2"/>
<path d="M548.914 968.991L549.78 970.644H548.048L548.914 968.991Z" fill="white" fill-opacity="0.2"/>
<path d="M177.123 363.97L177.989 365.623H176.257L177.123 363.97Z" fill="white" fill-opacity="0.2"/>
<path d="M1233.86 168.006L1234.72 169.659H1232.99L1233.86 168.006Z" fill="white" fill-opacity="0.2"/>
<path d="M1265.9 275.621L1266.77 277.274H1265.03L1265.9 275.621Z" fill="white" fill-opacity="0.2"/>
<path d="M229.734 957.382L230.6 959.035H228.868L229.734 957.382Z" fill="white" fill-opacity="0.2"/>
<path d="M733.475 161.782L734.341 163.435H732.609L733.475 161.782Z" fill="white" fill-opacity="0.2"/>
<path d="M1044.74 364.467L1045.61 366.12H1043.88L1044.74 364.467Z" fill="white" fill-opacity="0.2"/>
<path d="M694.203 885.193L695.069 886.846H693.337L694.203 885.193Z" fill="white" fill-opacity="0.2"/>
<path d="M1254.98 524.035L1255.84 525.688H1254.11L1254.98 524.035Z" fill="white" fill-opacity="0.2"/>
<path d="M1347.6 793.34L1348.46 794.993H1346.73L1347.6 793.34Z" fill="white" fill-opacity="0.2"/>
<path d="M877.076 880.487L877.942 882.14H876.21L877.076 880.487Z" fill="white" fill-opacity="0.2"/>
<path d="M812.234 721.603L813.1 723.256H811.368L812.234 721.603Z" fill="white" fill-opacity="0.2"/>
<path d="M1340.54 393.739L1341.4 395.392H1339.67L1340.54 393.739Z" fill="white" fill-opacity="0.2"/>
<path d="M241.354 649.103L242.22 650.756H240.487L241.354 649.103Z" fill="white" fill-opacity="0.2"/>
<path d="M550.762 782.93L551.628 784.583H549.896L550.762 782.93Z" fill="white" fill-opacity="0.2"/>
<path d="M530.436 913.212L531.302 914.865H529.57L530.436 913.212Z" fill="white" fill-opacity="0.2"/>
<path d="M266.596 37.5777L266.808 38.4459L267.596 38.6797L266.808 38.9134L266.596 39.7817L266.384 38.9134L265.596 38.6797L266.384 38.4459L266.596 37.5777Z" fill="white" fill-opacity="0.2"/>
<path d="M138.031 502.644L138.243 503.512L139.031 503.746L138.243 503.979L138.031 504.848L137.819 503.979L137.031 503.746L137.819 503.512L138.031 502.644Z" fill="white" fill-opacity="0.2"/>
<path d="M1164.49 692.162L1164.7 693.03L1165.49 693.264L1164.7 693.498L1164.49 694.366L1164.27 693.498L1163.49 693.264L1164.27 693.03L1164.49 692.162Z" fill="white" fill-opacity="0.2"/>
<path d="M1154.62 251.624L1154.83 252.493L1155.62 252.726L1154.83 252.96L1154.62 253.828L1154.4 252.96L1153.62 252.726L1154.4 252.493L1154.62 251.624Z" fill="white" fill-opacity="0.2"/>
<path d="M678.955 162.587L679.167 163.455L679.955 163.689L679.167 163.923L678.955 164.791L678.743 163.923L677.955 163.689L678.743 163.455L678.955 162.587Z" fill="white" fill-opacity="0.2"/>
<path d="M630.875 425.561L631.087 426.43L631.875 426.663L631.087 426.897L630.875 427.765L630.663 426.897L629.875 426.663L630.663 426.43L630.875 425.561Z" fill="white" fill-opacity="0.2"/>
<path d="M910.951 627.244L911.163 628.112L911.951 628.346L911.163 628.579L910.951 629.448L910.739 628.579L909.951 628.346L910.739 628.112L910.951 627.244Z" fill="white" fill-opacity="0.2"/>
<path d="M231.539 122.869L231.751 123.737L232.539 123.971L231.751 124.205L231.539 125.073L231.327 124.205L230.539 123.971L231.327 123.737L231.539 122.869Z" fill="white" fill-opacity="0.2"/>
<path d="M22.3516 376.375L22.5637 377.243L23.3516 377.477L22.5637 377.711L22.3516 378.579L22.1394 377.711L21.3516 377.477L22.1394 377.243L22.3516 376.375Z" fill="white" fill-opacity="0.2"/>
<path d="M987.395 416.631L987.607 417.499L988.395 417.733L987.607 417.967L987.395 418.835L987.182 417.967L986.395 417.733L987.182 417.499L987.395 416.631Z" fill="white" fill-opacity="0.2"/>
<path d="M262.51 775.47L262.722 776.339L263.51 776.572L262.722 776.806L262.51 777.674L262.298 776.806L261.51 776.572L262.298 776.339L262.51 775.47Z" fill="white" fill-opacity="0.2"/>
<path d="M558.318 816.686L558.53 817.555L559.318 817.788L558.53 818.022L558.318 818.89L558.106 818.022L557.318 817.788L558.106 817.555L558.318 816.686Z" fill="white" fill-opacity="0.2"/>
<path d="M483.463 545.248L483.675 546.117L484.463 546.35L483.675 546.584L483.463 547.452L483.251 546.584L482.463 546.35L483.251 546.117L483.463 545.248Z" fill="white" fill-opacity="0.2"/>
<path d="M575.791 0L576.003 0.868229L576.791 1.102L576.003 1.33577L575.791 2.204L575.579 1.33577L574.791 1.102L575.579 0.868229L575.791 0Z" fill="white" fill-opacity="0.2"/>
<path d="M1181.86 113.469L1182.07 114.337L1182.86 114.571L1182.07 114.805L1181.86 115.673L1181.65 114.805L1180.86 114.571L1181.65 114.337L1181.86 113.469Z" fill="white" fill-opacity="0.2"/>
<path d="M381.477 825.735L381.689 826.604L382.477 826.837L381.689 827.071L381.477 827.939L381.264 827.071L380.477 826.837L381.264 826.604L381.477 825.735Z" fill="white" fill-opacity="0.2"/>
<path d="M757.072 605.26L757.284 606.128L758.072 606.362L757.284 606.596L757.072 607.464L756.86 606.596L756.072 606.362L756.86 606.128L757.072 605.26Z" fill="white" fill-opacity="0.2"/>
<path d="M983.592 546.14L983.804 547.008L984.592 547.242L983.804 547.476L983.592 548.344L983.38 547.476L982.592 547.242L983.38 547.008L983.592 546.14Z" fill="white" fill-opacity="0.2"/>
<path d="M326.324 379.129L326.536 379.997L327.324 380.231L326.536 380.464L326.324 381.333L326.112 380.464L325.324 380.231L326.112 379.997L326.324 379.129Z" fill="white" fill-opacity="0.2"/>
<path d="M411.713 487.487L411.925 488.355L412.713 488.589L411.925 488.823L411.713 489.691L411.501 488.823L410.713 488.589L411.501 488.355L411.713 487.487Z" fill="white" fill-opacity="0.2"/>
<path d="M536.879 180.499L537.091 181.368L537.879 181.601L537.091 181.835L536.879 182.703L536.667 181.835L535.879 181.601L536.667 181.368L536.879 180.499Z" fill="white" fill-opacity="0.2"/>
<path d="M1391.02 329.815L1391.23 330.684L1392.02 330.917L1391.23 331.151L1391.02 332.019L1390.8 331.151L1390.02 330.917L1390.8 330.684L1391.02 329.815Z" fill="white" fill-opacity="0.2"/>
<path d="M1394.39 939.592L1394.6 940.46L1395.39 940.694L1394.6 940.928L1394.39 941.796L1394.18 940.928L1393.39 940.694L1394.18 940.46L1394.39 939.592Z" fill="white" fill-opacity="0.2"/>
<path d="M295.27 566.711L295.482 567.579L296.27 567.813L295.482 568.047L295.27 568.915L295.057 568.047L294.27 567.813L295.057 567.579L295.27 566.711Z" fill="white" fill-opacity="0.2"/>
<path d="M360.217 457.966L360.429 458.834L361.217 459.068L360.429 459.301L360.217 460.17L360.005 459.301L359.217 459.068L360.005 458.834L360.217 457.966Z" fill="white" fill-opacity="0.2"/>
<path d="M373.303 759.73L373.515 760.598L374.303 760.832L373.515 761.066L373.303 761.934L373.091 761.066L372.303 760.832L373.091 760.598L373.303 759.73Z" fill="white" fill-opacity="0.2"/>
<path d="M1030.53 523.127L1030.74 523.995L1031.53 524.229L1030.74 524.463L1030.53 525.331L1030.32 524.463L1029.53 524.229L1030.32 523.995L1030.53 523.127Z" fill="white" fill-opacity="0.2"/>
<path d="M312.785 523.163L312.997 524.032L313.785 524.265L312.997 524.499L312.785 525.367L312.573 524.499L311.785 524.265L312.573 524.032L312.785 523.163Z" fill="white" fill-opacity="0.2"/>
<path d="M330.242 819.449L330.454 820.317L331.242 820.551L330.454 820.784L330.242 821.653L330.03 820.784L329.242 820.551L330.03 820.317L330.242 819.449Z" fill="white" fill-opacity="0.2"/>
<path d="M779.826 194.883L780.038 195.751L780.826 195.985L780.038 196.219L779.826 197.087L779.614 196.219L778.826 195.985L779.614 195.751L779.826 194.883Z" fill="white" fill-opacity="0.2"/>
</svg>
