<svg xmlns="http://www.w3.org/2000/svg" width="24" height="24" viewBox="0 0 24 24" fill="none">
  <path d="M21.4334 2.58003C20.9332 2.06664 20.1929 1.87538 19.5026 2.07671L3.40604 6.75757C2.67775 6.9599 2.16153 7.54073 2.02248 8.2786C1.88042 9.02955 2.37662 9.98283 3.02489 10.3815L8.05795 13.4749C8.57416 13.7919 9.24043 13.7124 9.66761 13.2816L15.431 7.48235C15.7211 7.18036 16.2013 7.18036 16.4914 7.48235C16.7815 7.77427 16.7815 8.24739 16.4914 8.54938L10.718 14.3496C10.2899 14.7795 10.2098 15.4489 10.525 15.9683L13.6002 21.0518C13.9604 21.6558 14.5806 21.998 15.2609 21.998C15.3409 21.998 15.431 21.998 15.511 21.988C16.2913 21.8873 16.9116 21.3538 17.1417 20.5988L21.9136 4.52284C22.1237 3.83833 21.9336 3.09341 21.4334 2.58003Z" fill="white"/>
</svg>