<svg xmlns="http://www.w3.org/2000/svg" width="21" height="20" viewBox="0 0 21 20" fill="none">
  <path d="M18.4667 8.95L17.3333 7.63333C17.1167 7.38333 16.9417 6.91667 16.9417 6.58333V5.16666C16.9417 4.28333 16.2167 3.55833 15.3333 3.55833H13.9167C13.5917 3.55833 13.1167 3.38333 12.8667 3.16666L11.55 2.03333C10.975 1.54166 10.0333 1.54166 9.45 2.03333L8.14167 3.175C7.89167 3.38333 7.41667 3.55833 7.09167 3.55833H5.65C4.76667 3.55833 4.04167 4.28333 4.04167 5.16666V6.59166C4.04167 6.91666 3.86667 7.38333 3.65834 7.63333L2.53334 8.95833C2.05 9.53333 2.05 10.4667 2.53334 11.0417L3.65834 12.3667C3.86667 12.6167 4.04167 13.0833 4.04167 13.4083V14.8333C4.04167 15.7167 4.76667 16.4417 5.65 16.4417H7.09167C7.41667 16.4417 7.89167 16.6167 8.14167 16.8333L9.45834 17.9667C10.0333 18.4583 10.975 18.4583 11.5583 17.9667L12.875 16.8333C13.125 16.6167 13.5917 16.4417 13.925 16.4417H15.3417C16.225 16.4417 16.95 15.7167 16.95 14.8333V13.4167C16.95 13.0917 17.125 12.6167 17.3417 12.3667L18.475 11.05C18.9583 10.475 18.9583 9.525 18.4667 8.95ZM13.9667 8.425L9.94167 12.45C9.825 12.5667 9.66667 12.6333 9.5 12.6333C9.33334 12.6333 9.175 12.5667 9.05834 12.45L7.04167 10.4333C6.8 10.1917 6.8 9.79167 7.04167 9.55C7.28334 9.30833 7.68334 9.30833 7.925 9.55L9.5 11.125L13.0833 7.54167C13.325 7.3 13.725 7.3 13.9667 7.54167C14.2083 7.78333 14.2083 8.18333 13.9667 8.425Z" fill="#FFD700"/>
</svg>