<svg xmlns="http://www.w3.org/2000/svg" width="32" height="32" viewBox="0 0 32 32" fill="none">
  <path d="M18.3999 18.7024V28H6.3999C6.39953 26.5347 6.73461 25.0887 7.37946 23.7729C8.02431 22.4571 8.96183 21.3063 10.1202 20.4088C11.2785 19.5114 12.6269 18.891 14.0621 18.5952C15.4973 18.2994 16.9811 18.3361 18.3999 18.7024V18.7024ZM15.9999 17.2C12.0219 17.2 8.7999 13.978 8.7999 10C8.7999 6.022 12.0219 2.8 15.9999 2.8C19.9779 2.8 23.1999 6.022 23.1999 10C23.1999 13.978 19.9779 17.2 15.9999 17.2ZM23.1999 22V18.4H25.5999V22H29.1999V24.4H25.5999V28H23.1999V24.4H19.5999V22H23.1999Z" fill="white"/>
</svg>