<svg width="110" height="6" viewBox="0 0 110 6" fill="none" xmlns="http://www.w3.org/2000/svg">
<path d="M2.9375 5.13068C2.53646 5.13068 2.17022 5.03291 1.83878 4.83736C1.50734 4.63849 1.24219 4.37334 1.04332 4.0419C0.847775 3.71046 0.75 3.34422 0.75 2.94318C0.75 2.53883 0.847775 2.17259 1.04332 1.84446C1.24219 1.51302 1.50734 1.24953 1.83878 1.05398C2.17022 0.855113 2.53646 0.755682 2.9375 0.755682C3.34186 0.755682 3.7081 0.855113 4.03622 1.05398C4.36766 1.24953 4.63116 1.51302 4.8267 1.84446C5.02557 2.17259 5.125 2.53883 5.125 2.94318C5.125 3.34422 5.02557 3.71046 4.8267 4.0419C4.63116 4.37334 4.36766 4.63849 4.03622 4.83736C3.7081 5.03291 3.34186 5.13068 2.9375 5.13068ZM14.582 5.13068C14.181 5.13068 13.8147 5.03291 13.4833 4.83736C13.1518 4.63849 12.8867 4.37334 12.6878 4.0419C12.4923 3.71046 12.3945 3.34422 12.3945 2.94318C12.3945 2.53883 12.4923 2.17259 12.6878 1.84446C12.8867 1.51302 13.1518 1.24953 13.4833 1.05398C13.8147 0.855113 14.181 0.755682 14.582 0.755682C14.9864 0.755682 15.3526 0.855113 15.6807 1.05398C16.0122 1.24953 16.2757 1.51302 16.4712 1.84446C16.6701 2.17259 16.7695 2.53883 16.7695 2.94318C16.7695 3.34422 16.6701 3.71046 16.4712 4.0419C16.2757 4.37334 16.0122 4.63849 15.6807 4.83736C15.3526 5.03291 14.9864 5.13068 14.582 5.13068ZM26.2265 5.13068C25.8255 5.13068 25.4592 5.03291 25.1278 4.83736C24.7963 4.63849 24.5312 4.37334 24.3323 4.0419C24.1368 3.71046 24.039 3.34422 24.039 2.94318C24.039 2.53883 24.1368 2.17259 24.3323 1.84446C24.5312 1.51302 24.7963 1.24953 25.1278 1.05398C25.4592 0.855113 25.8255 0.755682 26.2265 0.755682C26.6309 0.755682 26.9971 0.855113 27.3252 1.05398C27.6567 1.24953 27.9202 1.51302 28.1157 1.84446C28.3146 2.17259 28.414 2.53883 28.414 2.94318C28.414 3.34422 28.3146 3.71046 28.1157 4.0419C27.9202 4.37334 27.6567 4.63849 27.3252 4.83736C26.9971 5.03291 26.6309 5.13068 26.2265 5.13068ZM37.871 5.13068C37.47 5.13068 37.1037 5.03291 36.7723 4.83736C36.4408 4.63849 36.1757 4.37334 35.9768 4.0419C35.7813 3.71046 35.6835 3.34422 35.6835 2.94318C35.6835 2.53883 35.7813 2.17259 35.9768 1.84446C36.1757 1.51302 36.4408 1.24953 36.7723 1.05398C37.1037 0.855113 37.47 0.755682 37.871 0.755682C38.2754 0.755682 38.6416 0.855113 38.9697 1.05398C39.3012 1.24953 39.5647 1.51302 39.7602 1.84446C39.9591 2.17259 40.0585 2.53883 40.0585 2.94318C40.0585 3.34422 39.9591 3.71046 39.7602 4.0419C39.5647 4.37334 39.3012 4.63849 38.9697 4.83736C38.6416 5.03291 38.2754 5.13068 37.871 5.13068ZM49.5155 5.13068C49.1145 5.13068 48.7482 5.03291 48.4168 4.83736C48.0853 4.63849 47.8202 4.37334 47.6213 4.0419C47.4258 3.71046 47.328 3.34422 47.328 2.94318C47.328 2.53883 47.4258 2.17259 47.6213 1.84446C47.8202 1.51302 48.0853 1.24953 48.4168 1.05398C48.7482 0.855113 49.1145 0.755682 49.5155 0.755682C49.9199 0.755682 50.2861 0.855113 50.6142 1.05398C50.9457 1.24953 51.2092 1.51302 51.4047 1.84446C51.6036 2.17259 51.703 2.53883 51.703 2.94318C51.703 3.34422 51.6036 3.71046 51.4047 4.0419C51.2092 4.37334 50.9457 4.63849 50.6142 4.83736C50.2861 5.03291 49.9199 5.13068 49.5155 5.13068ZM61.16 5.13068C60.759 5.13068 60.3927 5.03291 60.0613 4.83736C59.7298 4.63849 59.4647 4.37334 59.2658 4.0419C59.0703 3.71046 58.9725 3.34422 58.9725 2.94318C58.9725 2.53883 59.0703 2.17259 59.2658 1.84446C59.4647 1.51302 59.7298 1.24953 60.0613 1.05398C60.3927 0.855113 60.759 0.755682 61.16 0.755682C61.5644 0.755682 61.9306 0.855113 62.2587 1.05398C62.5902 1.24953 62.8537 1.51302 63.0492 1.84446C63.2481 2.17259 63.3475 2.53883 63.3475 2.94318C63.3475 3.34422 63.2481 3.71046 63.0492 4.0419C62.8537 4.37334 62.5902 4.63849 62.2587 4.83736C61.9306 5.03291 61.5644 5.13068 61.16 5.13068ZM72.8045 5.13068C72.4035 5.13068 72.0372 5.03291 71.7058 4.83736C71.3743 4.63849 71.1092 4.37334 70.9103 4.0419C70.7148 3.71046 70.617 3.34422 70.617 2.94318C70.617 2.53883 70.7148 2.17259 70.9103 1.84446C71.1092 1.51302 71.3743 1.24953 71.7058 1.05398C72.0372 0.855113 72.4035 0.755682 72.8045 0.755682C73.2089 0.755682 73.5751 0.855113 73.9032 1.05398C74.2347 1.24953 74.4982 1.51302 74.6937 1.84446C74.8926 2.17259 74.992 2.53883 74.992 2.94318C74.992 3.34422 74.8926 3.71046 74.6937 4.0419C74.4982 4.37334 74.2347 4.63849 73.9032 4.83736C73.5751 5.03291 73.2089 5.13068 72.8045 5.13068ZM84.449 5.13068C84.048 5.13068 83.6817 5.03291 83.3503 4.83736C83.0188 4.63849 82.7537 4.37334 82.5548 4.0419C82.3593 3.71046 82.2615 3.34422 82.2615 2.94318C82.2615 2.53883 82.3593 2.17259 82.5548 1.84446C82.7537 1.51302 83.0188 1.24953 83.3503 1.05398C83.6817 0.855113 84.048 0.755682 84.449 0.755682C84.8534 0.755682 85.2196 0.855113 85.5477 1.05398C85.8792 1.24953 86.1427 1.51302 86.3382 1.84446C86.5371 2.17259 86.6365 2.53883 86.6365 2.94318C86.6365 3.34422 86.5371 3.71046 86.3382 4.0419C86.1427 4.37334 85.8792 4.63849 85.5477 4.83736C85.2196 5.03291 84.8534 5.13068 84.449 5.13068ZM96.0935 5.13068C95.6925 5.13068 95.3262 5.03291 94.9948 4.83736C94.6633 4.63849 94.3982 4.37334 94.1993 4.0419C94.0038 3.71046 93.906 3.34422 93.906 2.94318C93.906 2.53883 94.0038 2.17259 94.1993 1.84446C94.3982 1.51302 94.6633 1.24953 94.9948 1.05398C95.3262 0.855113 95.6925 0.755682 96.0935 0.755682C96.4979 0.755682 96.8641 0.855113 97.1922 1.05398C97.5237 1.24953 97.7872 1.51302 97.9827 1.84446C98.1816 2.17259 98.281 2.53883 98.281 2.94318C98.281 3.34422 98.1816 3.71046 97.9827 4.0419C97.7872 4.37334 97.5237 4.63849 97.1922 4.83736C96.8641 5.03291 96.4979 5.13068 96.0935 5.13068ZM107.738 5.13068C107.337 5.13068 106.971 5.03291 106.639 4.83736C106.308 4.63849 106.043 4.37334 105.844 4.0419C105.648 3.71046 105.55 3.34422 105.55 2.94318C105.55 2.53883 105.648 2.17259 105.844 1.84446C106.043 1.51302 106.308 1.24953 106.639 1.05398C106.971 0.855113 107.337 0.755682 107.738 0.755682C108.142 0.755682 108.509 0.855113 108.837 1.05398C109.168 1.24953 109.432 1.51302 109.627 1.84446C109.826 2.17259 109.925 2.53883 109.925 2.94318C109.925 3.34422 109.826 3.71046 109.627 4.0419C109.432 4.37334 109.168 4.63849 108.837 4.83736C108.509 5.03291 108.142 5.13068 107.738 5.13068Z" fill="white"/>
</svg>
