<svg xmlns="http://www.w3.org/2000/svg" width="32" height="32" viewBox="0 0 32 32" fill="none">
  <path d="M16 28C9.3724 28 4 22.6276 4 16C4 9.3724 9.3724 4 16 4C22.6276 4 28 9.3724 28 16C28 22.6276 22.6276 28 16 28ZM14.8 16.9504V20.8H17.2V16.9504C17.8317 16.6747 18.3492 16.1899 18.6655 15.5776C18.9817 14.9652 19.0775 14.2626 18.9367 13.5879C18.7959 12.9132 18.4271 12.3076 17.8922 11.8729C17.3574 11.4382 16.6892 11.2009 16 11.2009C15.3108 11.2009 14.6426 11.4382 14.1078 11.8729C13.5729 12.3076 13.2041 12.9132 13.0633 13.5879C12.9225 14.2626 13.0183 14.9652 13.3345 15.5776C13.6508 16.1899 14.1683 16.6747 14.8 16.9504Z" fill="white"/>
</svg>